<?xml version="1.0" encoding="UTF-8" standalone="no"?>
<!-- Created with Inkscape (http://www.inkscape.org/) -->
<svg
   xmlns:dc="http://purl.org/dc/elements/1.1/"
   xmlns:cc="http://creativecommons.org/ns#"
   xmlns:rdf="http://www.w3.org/1999/02/22-rdf-syntax-ns#"
   xmlns:svg="http://www.w3.org/2000/svg"
   xmlns="http://www.w3.org/2000/svg"
   xmlns:xlink="http://www.w3.org/1999/xlink"
   xmlns:sodipodi="http://sodipodi.sourceforge.net/DTD/sodipodi-0.dtd"
   xmlns:inkscape="http://www.inkscape.org/namespaces/inkscape"
   width="744.09448819"
   height="1052.3622047"
   id="svg2"
   sodipodi:version="0.32"
   inkscape:version="0.46"
   sodipodi:docname="arbor-mill.svg"
   inkscape:output_extension="org.inkscape.output.svg.inkscape">
  <defs
     id="defs4">
    <inkscape:perspective
       sodipodi:type="inkscape:persp3d"
       inkscape:vp_x="0 : 526.18109 : 1"
       inkscape:vp_y="0 : 1000 : 0"
       inkscape:vp_z="744.09448 : 526.18109 : 1"
       inkscape:persp3d-origin="372.04724 : 350.78739 : 1"
       id="perspective10" />
  </defs>
  <sodipodi:namedview
     id="base"
     pagecolor="#ffffff"
     bordercolor="#666666"
     borderopacity="1.0"
     gridtolerance="10000"
     guidetolerance="10"
     objecttolerance="10"
     inkscape:pageopacity="0.0"
     inkscape:pageshadow="2"
     inkscape:zoom="3.959798"
     inkscape:cx="358.35767"
     inkscape:cy="483.31739"
     inkscape:document-units="px"
     inkscape:current-layer="layer1"
     showgrid="false"
     inkscape:window-width="1918"
     inkscape:window-height="1038"
     inkscape:window-x="0"
     inkscape:window-y="0" />
  <metadata
     id="metadata7">
    <rdf:RDF>
      <cc:Work
         rdf:about="">
        <dc:format>image/svg+xml</dc:format>
        <dc:type
           rdf:resource="http://purl.org/dc/dcmitype/StillImage" />
      </cc:Work>
    </rdf:RDF>
  </metadata>
  <g
     inkscape:label="Layer 1"
     inkscape:groupmode="layer"
     id="layer1">
    <path
       style="opacity:1;fill:none;fill-opacity:1;stroke:#000000;stroke-width:1;stroke-miterlimit:4;stroke-dasharray:none;stroke-opacity:1"
       d="M 312.05016,518.8731 C 311.44158,518.8731 310.94796,519.3539 310.94796,519.96248 L 310.94796,521.94902 C 305.06703,523.23846 300.65646,528.51343 300.65646,534.82942 C 300.65646,542.11023 306.51034,548.03024 313.7291,548.03023 C 320.94787,548.03023 326.81456,542.11022 326.81456,534.82942 C 326.81456,528.56589 322.47167,523.3318 316.66404,521.98746 L 316.66404,519.96248 C 316.66404,519.3539 316.17043,518.8731 315.56184,518.8731 L 312.05016,518.8731 z"
       id="path2387"
       inkscape:export-filename="/home/fenn/code/skdb/icons/abor-mill.png"
       inkscape:export-xdpi="90"
       inkscape:export-ydpi="90" />
    <path
       style="fill:none;fill-rule:evenodd;stroke:#000000;stroke-width:1;stroke-linecap:butt;stroke-linejoin:miter;stroke-opacity:1;stroke-miterlimit:4;stroke-dasharray:none"
       d="M 323.10699,487.85418 L 319.59165,487.67109 L 305.67679,493.23703 C 299.91679,500.55506 294.79753,504.98979 293.66607,491.47937"
       id="path3183"
       sodipodi:nodetypes="cccc"
       inkscape:transform-center-x="5.7124172"
       inkscape:transform-center-y="-41.231932"
       inkscape:tile-cx="306.78572"
       inkscape:tile-cy="518.17329"
       inkscape:tile-w="71.42857"
       inkscape:tile-h="31.979354"
       inkscape:tile-x0="257.14286"
       inkscape:tile-y0="401.6479"
       inkscape:export-filename="/home/fenn/code/skdb/icons/abor-mill.png"
       inkscape:export-xdpi="90"
       inkscape:export-ydpi="90" />
    <path
       style="opacity:0.50384616999999998;fill:none;fill-rule:evenodd;stroke:#000000;stroke-width:1;stroke-linecap:butt;stroke-linejoin:miter;stroke-opacity:1;stroke-miterlimit:4;stroke-dasharray:none"
       d="M 313.80601,534.83514 L 313.87924,535.12809"
       id="path3185"
       inkscape:export-filename="/home/fenn/code/skdb/icons/abor-mill.png"
       inkscape:export-xdpi="90"
       inkscape:export-ydpi="90" />
    <use
       x="0"
       y="0"
       inkscape:tiled-clone-of="#path3183"
       xlink:href="#path3183"
       id="use3207"
       inkscape:transform-center-x="5.7124172"
       inkscape:transform-center-y="-41.231932"
       width="1"
       height="1"
       inkscape:export-filename="/home/fenn/code/skdb/icons/abor-mill.png"
       inkscape:export-xdpi="90"
       inkscape:export-ydpi="90"
       style="stroke-width:1;stroke-miterlimit:4;stroke-dasharray:none" />
    <use
       x="0"
       y="0"
       inkscape:tiled-clone-of="#path3183"
       xlink:href="#path3183"
       transform="matrix(0.809017,0.5877853,-0.5877853,0.809017,374.36514,-82.427685)"
       id="use3209"
       inkscape:transform-center-x="-20.631467"
       inkscape:transform-center-y="-40.124331"
       width="1"
       height="1"
       inkscape:export-filename="/home/fenn/code/skdb/icons/abor-mill.png"
       inkscape:export-xdpi="90"
       inkscape:export-ydpi="90"
       style="stroke-width:0.99999997;stroke-miterlimit:4;stroke-dasharray:none" />
    <use
       x="0"
       y="0"
       inkscape:tiled-clone-of="#path3183"
       xlink:href="#path3183"
       transform="matrix(0.309017,0.9510565,-0.9510565,0.309017,725.68264,70.933236)"
       id="use3211"
       inkscape:transform-center-x="-37.854035"
       inkscape:transform-center-y="-19.476449"
       width="1"
       height="1"
       inkscape:export-filename="/home/fenn/code/skdb/icons/abor-mill.png"
       inkscape:export-xdpi="90"
       inkscape:export-ydpi="90"
       style="stroke-width:1.00000001;stroke-miterlimit:4;stroke-dasharray:none" />
    <use
       x="0"
       y="0"
       inkscape:tiled-clone-of="#path3183"
       xlink:href="#path3183"
       transform="matrix(-0.309017,0.9510565,-0.9510565,-0.309017,919.76121,401.50408)"
       id="use3213"
       inkscape:transform-center-x="-42.751627"
       inkscape:transform-center-y="8.2050553"
       width="1"
       height="1"
       inkscape:export-filename="/home/fenn/code/skdb/icons/abor-mill.png"
       inkscape:export-xdpi="90"
       inkscape:export-ydpi="90"
       style="stroke-width:1.00000001;stroke-miterlimit:4;stroke-dasharray:none" />
    <use
       x="0"
       y="0"
       inkscape:tiled-clone-of="#path3183"
       xlink:href="#path3183"
       transform="matrix(-0.809017,0.5877853,-0.5877853,-0.809017,882.46941,783.01801)"
       id="use3215"
       inkscape:transform-center-x="-31.333972"
       inkscape:transform-center-y="30.813583"
       width="1"
       height="1"
       inkscape:export-filename="/home/fenn/code/skdb/icons/abor-mill.png"
       inkscape:export-xdpi="90"
       inkscape:export-ydpi="90"
       style="stroke-width:0.99999997;stroke-miterlimit:4;stroke-dasharray:none" />
    <use
       x="0"
       y="0"
       inkscape:tiled-clone-of="#path3183"
       xlink:href="#path3183"
       transform="matrix(-1,0,0,-1,628.05143,1069.7497)"
       id="use3217"
       inkscape:transform-center-x="-5.7124239"
       inkscape:transform-center-y="41.231925"
       width="1"
       height="1"
       inkscape:export-filename="/home/fenn/code/skdb/icons/abor-mill.png"
       inkscape:export-xdpi="90"
       inkscape:export-ydpi="90"
       style="stroke-width:1;stroke-miterlimit:4;stroke-dasharray:none" />
    <use
       x="0"
       y="0"
       inkscape:tiled-clone-of="#path3183"
       xlink:href="#path3183"
       transform="matrix(-0.809017,-0.5877853,0.5877853,-0.809017,253.68629,1152.1774)"
       id="use3219"
       inkscape:transform-center-x="20.63146"
       inkscape:transform-center-y="40.124337"
       width="1"
       height="1"
       inkscape:export-filename="/home/fenn/code/skdb/icons/abor-mill.png"
       inkscape:export-xdpi="90"
       inkscape:export-ydpi="90"
       style="stroke-width:0.99999997;stroke-miterlimit:4;stroke-dasharray:none" />
    <use
       x="0"
       y="0"
       inkscape:tiled-clone-of="#path3183"
       xlink:href="#path3183"
       transform="matrix(-0.309017,-0.9510565,0.9510565,-0.309017,-97.631216,998.81647)"
       id="use3221"
       inkscape:transform-center-x="37.854034"
       inkscape:transform-center-y="19.476447"
       width="1"
       height="1"
       inkscape:export-filename="/home/fenn/code/skdb/icons/abor-mill.png"
       inkscape:export-xdpi="90"
       inkscape:export-ydpi="90"
       style="stroke-width:1.00000001;stroke-miterlimit:4;stroke-dasharray:none" />
    <use
       x="0"
       y="0"
       inkscape:tiled-clone-of="#path3183"
       xlink:href="#path3183"
       transform="matrix(0.309017,-0.9510565,0.9510565,0.309017,-291.70978,668.24563)"
       id="use3223"
       inkscape:transform-center-x="42.751619"
       inkscape:transform-center-y="-8.205054"
       width="1"
       height="1"
       inkscape:export-filename="/home/fenn/code/skdb/icons/abor-mill.png"
       inkscape:export-xdpi="90"
       inkscape:export-ydpi="90"
       style="stroke-width:1.00000001;stroke-miterlimit:4;stroke-dasharray:none" />
    <use
       x="0"
       y="0"
       inkscape:tiled-clone-of="#path3183"
       xlink:href="#path3183"
       transform="matrix(0.809017,-0.5877853,0.5877853,0.809017,-254.418,286.7317)"
       id="use3225"
       inkscape:transform-center-x="31.333986"
       inkscape:transform-center-y="-30.813581"
       width="1"
       height="1"
       inkscape:export-filename="/home/fenn/code/skdb/icons/abor-mill.png"
       inkscape:export-xdpi="90"
       inkscape:export-ydpi="90"
       style="stroke-width:0.99999997;stroke-miterlimit:4;stroke-dasharray:none" />
    <path
       style="opacity:0.50384616999999998;fill:none;fill-opacity:1;stroke:#000000;stroke-width:1;stroke-miterlimit:4;stroke-dasharray:none;stroke-opacity:1"
       d="M 308.51287,582.85217 L 263.60462,582.80038 C 263.75147,583.17539 263.99114,583.54776 264.30951,583.90259 C 264.63913,584.26994 265.03643,584.61659 265.48861,584.96634 C 265.94079,585.3161 266.45033,585.66874 266.96249,586.00446 C 267.98681,586.67592 269.06004,587.31581 269.94869,587.95254 C 270.39302,588.27091 270.79846,588.58592 271.11498,588.90095 C 271.43149,589.21599 271.66814,589.53409 271.79424,589.84936 C 271.86871,590.03552 271.88142,590.21643 271.85833,590.38765 C 271.83523,590.55886 271.7716,590.7152 271.66608,590.87467 C 271.45504,591.19361 271.09071,591.49357 270.64077,591.78462 C 269.7409,592.36674 268.48884,592.91691 267.35979,593.54046 C 266.79528,593.85224 266.26205,594.19257 265.82184,594.55295 C 265.38163,594.91332 265.02981,595.29758 264.83498,595.73206 C 264.73757,595.94929 264.68173,596.18359 264.66837,596.42413 C 264.655,596.66467 264.68509,596.91326 264.7709,597.18029 C 264.85671,597.44733 264.99371,597.72947 265.19384,598.02617 C 265.39397,598.32288 265.65888,598.63219 265.98845,598.96177 C 266.36645,599.33977 266.65745,599.74034 266.87277,600.15368 C 267.08811,600.56703 267.22354,600.99676 267.29572,601.43531 C 267.36788,601.87387 267.37282,602.31458 267.32135,602.76821 C 267.26987,603.22184 267.16937,603.68098 267.01375,604.13956 C 266.89574,604.48736 266.72042,604.83216 266.55237,605.17768 L 370.30035,605.3027 C 370.36541,605.13443 370.36252,604.97415 370.45413,604.80286 C 370.72755,604.29176 371.12606,603.75927 371.65887,603.22646 C 372.3275,602.55783 372.86125,601.99033 373.27373,601.48344 C 373.68621,600.97656 373.97148,600.53016 374.17087,600.13772 C 374.37026,599.74529 374.47473,599.39926 374.5041,599.07397 C 374.53347,598.74869 374.49915,598.44381 374.40157,598.13838 C 374.2064,597.52753 373.79521,596.91578 373.35062,596.10058 C 373.12834,595.69299 372.89141,595.23323 372.67136,594.7036 C 372.45132,594.17398 372.24373,593.56982 372.06899,592.87087 C 371.94977,592.39399 371.77909,591.914 371.56916,591.43545 C 371.35922,590.95689 371.11924,590.47823 370.86426,590.00002 C 370.3543,589.04358 369.79373,588.09772 369.37756,587.15479 C 369.16948,586.68332 368.99386,586.21005 368.87773,585.745 C 368.7616,585.27994 368.70246,584.81745 368.72394,584.36083 C 368.74541,583.90421 368.85241,583.44848 369.05716,583.00231 C 369.26191,582.55614 369.57187,582.11592 370.00557,581.68223 C 371.32833,580.35947 372.30685,579.5434 372.99177,578.96516 C 373.33423,578.67604 373.60208,578.45071 373.7992,578.24745 C 373.99632,578.04419 374.12249,577.86778 374.18368,577.68353 C 374.24489,577.49929 374.24899,577.31324 374.18368,577.08116 C 374.11839,576.84909 373.98159,576.56922 373.7992,576.22247 C 373.43441,575.52897 372.84565,574.54607 372.06899,572.99276 C 371.97584,572.80645 371.91624,572.73996 371.82548,572.56982 L 344.02688,572.49658 C 342.97125,573.34759 341.89766,574.17068 340.77154,574.93168 C 339.49062,575.7973 338.163,576.59959 336.79848,577.34115 C 335.43395,578.08271 334.02196,578.76952 332.58191,579.37895 C 331.14187,579.98838 329.66775,580.52461 328.16028,580.99381 C 326.65281,581.463 325.11322,581.86484 323.54641,582.18572 C 321.97959,582.50661 320.384,582.75177 318.76592,582.91626 C 317.14784,583.08074 315.51851,583.15977 313.85727,583.15977 C 312.19603,583.15977 310.55387,583.08074 308.9358,582.91626 C 308.79267,582.9017 308.65562,582.86797 308.51287,582.85217 z"
       id="path3275"
       sodipodi:nodetypes="ccssssssssssssssssssssccssssssssssssssssssssssccssssssssc"
       inkscape:export-filename="/home/fenn/code/skdb/icons/abor-mill.png"
       inkscape:export-xdpi="90"
       inkscape:export-ydpi="90" />
    <path
       style="fill:none;fill-rule:evenodd;stroke:#000000;stroke-width:0.41012225;stroke-linecap:butt;stroke-linejoin:miter;stroke-miterlimit:4;stroke-dasharray:none;stroke-opacity:1"
       d="M 330.85486,578.94729 C 330.78806,579.05532 330.66141,579.77824 330.11007,579.6353 C 329.65759,579.518 329.36709,579.13693 329.14248,578.75509 C 328.91006,578.35997 328.99247,577.87199 329.17525,577.53634 C 329.41978,577.08728 329.57763,576.84792 329.9528,576.47921 C 330.29337,576.14451 330.70198,576.06223 331.13224,575.93535 C 331.60187,575.79687 331.92857,575.80538 332.3357,576.02708 C 332.74315,576.24896 333.12991,576.2688 333.49767,576.64301 C 333.75543,576.90529 334.09073,577.41121 334.11579,577.77877 C 334.19491,578.93919 333.94848,577.5793 333.90392,577.50356 C 333.70186,577.16005 332.68709,576.65314 332.35318,576.56657 C 331.90294,576.44985 331.59859,576.5794 331.082,576.61462 C 330.73891,576.63802 330.24654,577.23002 330.06201,577.5145 C 329.84289,577.85232 329.89697,578.38997 330.22145,578.72015 C 330.30013,578.8002 330.74448,578.8757 330.85486,578.94729 z"
       id="path3279"
       sodipodi:nodetypes="csssssssssssssc"
       inkscape:export-filename="/home/fenn/code/skdb/icons/abor-mill.png"
       inkscape:export-xdpi="90"
       inkscape:export-ydpi="90" />
    <path
       style="fill:none;fill-rule:evenodd;stroke:#000000;stroke-width:0.41012225;stroke-linecap:butt;stroke-linejoin:miter;stroke-miterlimit:4;stroke-dasharray:none;stroke-opacity:1"
       d="M 300.75141,580.51494 C 300.98608,580.67945 301.30353,580.85411 301.30845,581.17991 C 301.24376,581.62326 300.82039,581.88967 300.43691,582.04247 C 300.09891,582.19093 299.69666,582.23883 299.35918,582.06124 C 298.94248,581.8563 298.63161,581.49202 298.34829,581.13428 C 298.08745,580.79172 297.90213,580.37797 297.91069,579.9405 C 297.87091,579.46925 297.82673,578.936 298.13994,578.54069 C 298.31863,578.31225 298.51036,578.09353 298.65851,577.843 C 298.9944,577.38327 299.55585,577.14106 300.10711,577.06902 C 300.34603,577.04637 300.59206,577.08718 300.81351,577.17402 C 300.60221,577.27229 300.28202,577.14925 300.0368,577.22841 C 299.72189,577.36714 299.48177,577.63475 299.25208,577.88444 C 298.99709,578.19174 298.7036,578.50297 298.64264,578.9149 C 298.58724,579.19665 298.57742,579.4852 298.53372,579.76769 C 298.53996,580.16506 298.81205,580.48366 299.03032,580.79217 C 299.23283,581.07134 299.56921,581.24678 299.91706,581.21923 C 300.15508,581.20394 300.42871,581.11697 300.52825,580.87842 C 300.59872,580.75504 300.65942,580.62451 300.75141,580.51494 z"
       id="path3281"
       inkscape:export-filename="/home/fenn/code/skdb/icons/abor-mill.png"
       inkscape:export-xdpi="90"
       inkscape:export-ydpi="90" />
  </g>
</svg>
