<?xml version="1.0" encoding="UTF-8" standalone="no"?>
<!-- Created with Inkscape (http://www.inkscape.org/) -->
<svg
   xmlns:dc="http://purl.org/dc/elements/1.1/"
   xmlns:cc="http://creativecommons.org/ns#"
   xmlns:rdf="http://www.w3.org/1999/02/22-rdf-syntax-ns#"
   xmlns:svg="http://www.w3.org/2000/svg"
   xmlns="http://www.w3.org/2000/svg"
   xmlns:sodipodi="http://sodipodi.sourceforge.net/DTD/sodipodi-0.dtd"
   xmlns:inkscape="http://www.inkscape.org/namespaces/inkscape"
   width="744.09448819"
   height="1052.3622047"
   id="svg3322"
   sodipodi:version="0.32"
   inkscape:version="0.46"
   sodipodi:docname="band-saw.svg"
   inkscape:output_extension="org.inkscape.output.svg.inkscape">
  <sodipodi:namedview
     id="base"
     pagecolor="#ffffff"
     bordercolor="#666666"
     borderopacity="1.0"
     gridtolerance="10000"
     guidetolerance="10"
     objecttolerance="10"
     inkscape:pageopacity="0.0"
     inkscape:pageshadow="2"
     inkscape:zoom="5.6568543"
     inkscape:cx="450.31268"
     inkscape:cy="510.8839"
     inkscape:document-units="px"
     inkscape:current-layer="layer1"
     showgrid="false"
     inkscape:window-width="1918"
     inkscape:window-height="1038"
     inkscape:window-x="0"
     inkscape:window-y="0" />
  <defs
     id="defs3324">
    <inkscape:perspective
       id="perspective3330"
       inkscape:persp3d-origin="372.04724 : 350.78739 : 1"
       inkscape:vp_z="744.09448 : 526.18109 : 1"
       inkscape:vp_y="0 : 1000 : 0"
       inkscape:vp_x="0 : 526.18109 : 1"
       sodipodi:type="inkscape:persp3d" />
  </defs>
  <metadata
     id="metadata3327">
    <rdf:RDF>
      <cc:Work
         rdf:about="">
        <dc:format>image/svg+xml</dc:format>
        <dc:type
           rdf:resource="http://purl.org/dc/dcmitype/StillImage" />
      </cc:Work>
    </rdf:RDF>
  </metadata>
  <g
     id="layer1"
     inkscape:groupmode="layer"
     inkscape:label="Layer 1">
    <path
       id="path4270"
       d="M 503.75,506.125 C 478.12143,506.12501 461.87857,506.09375 436.25,506.09375 C 410.62143,506.09375 389.81247,526.90267 389.8125,552.53125 C 389.8125,578.15982 410.62145,598.96872 436.25,598.96875 C 461.87855,598.96878 478.12143,599 503.75,599 C 529.37857,599 550.15626,578.19107 550.15625,552.5625 C 550.15625,526.93393 529.37857,506.12499 503.75,506.125 z"
       style="opacity:1;fill:none;fill-opacity:1;stroke:#000000;stroke-width:0.1;stroke-miterlimit:4;stroke-dasharray:none;stroke-opacity:1" />
    <path
       sodipodi:nodetypes="cccc"
       id="path3183"
       d="M 435.57967,491.93853 L 436.43655,492.03971 L 440.19949,493.71407 C 442.33568,495.91549 446.41714,495.98449 443.44751,491.92027"
       style="fill:none;fill-rule:evenodd;stroke:#000000;stroke-width:0.11697467px;stroke-linecap:butt;stroke-linejoin:miter;stroke-opacity:1" />
    <path
       id="path1442"
       d="M503.75 504.11115C503.75 504.11115 502.893120237 504.211933296 502.893120237 504.211933296C502.893120237 504.211933296 499.130181277 505.884551195 499.130181277 505.884551195C496.993991867 508.084982218 492.912532995 508.152092654 495.882162175 504.089247482M495.812532289 504.107475246C495.812532289 504.107475246 494.955652526 504.208258543 494.955652526 504.208258543C494.955652526 504.208258543 491.192713566 505.880876441 491.192713566 505.880876441C489.056524157 508.081307465 484.975065285 508.148417901 487.944694464 504.085572729M487.875064579 504.103800493C487.875064579 504.103800493 487.018184815 504.204583789 487.018184815 504.204583789C487.018184815 504.204583789 483.255245856 505.877201688 483.255245856 505.877201688C481.119056446 508.077632711 477.037597574 508.144743147 480.007226753 504.081897975M479.937596868 504.100125739C479.937596868 504.100125739 479.080717105 504.200909036 479.080717105 504.200909036C479.080717105 504.200909036 475.317778145 505.873526934 475.317778145 505.873526934C473.181588735 508.073957958 469.100129863 508.141068393 472.069759043 504.078223222M472.000129157 504.096450986C472.000129157 504.096450986 471.143249394 504.197234282 471.143249394 504.197234282C471.143249394 504.197234282 467.380310434 505.869852181 467.380310434 505.869852181C465.244121025 508.070283204 461.162662153 508.13739364 464.132291332 504.074548468M464.062661447 504.092776232C464.062661447 504.092776232 463.205781683 504.193559529 463.205781683 504.193559529C463.205781683 504.193559529 459.442842723 505.866177427 459.442842723 505.866177427C457.306653314 508.066608451 453.225194442 508.133718886 456.194823621 504.070873715M456.125193736 504.089101479C456.125193736 504.089101479 455.268313973 504.189884775 455.268313973 504.189884775C455.268313973 504.189884775 451.505375013 505.862502674 451.505375013 505.862502674C449.369185603 508.062933697 445.287726731 508.130044133 448.25735591 504.067198961M448.187726025 504.085426725C448.187726025 504.085426725 447.330846262 504.186210021 447.330846262 504.186210021C447.330846262 504.186210021 443.567907302 505.85882792 443.567907302 505.85882792C441.431717892 508.059258943 437.350259021 508.126369379 440.3198882 504.063524207M440.250258314 504.081751971C440.250258314 504.081751971 439.393378551 504.182535268 439.393378551 504.182535268C439.393378551 504.182535268 435.630704386 505.871123089 435.630704386 505.871123089C433.495427963 508.126616991 429.427125495 508.524040488 432.387866644 504.234363731M432.318445159 504.25791009C432.318445159 504.25791009 431.464339612 504.426207792 431.464339612 504.426207792C431.464339612 504.426207792 427.74301985 506.648262309 427.74301985 506.648262309C425.64039893 509.225624404 421.714907004 510.423436075 424.571083036 505.547339909M424.504113324 505.58463624C424.504113324 505.58463624 423.67997021 505.920081266 423.67997021 505.920081266C423.67997021 505.920081266 420.100818164 508.750138466 420.100818164 508.750138466C418.113940289 511.735589923 414.397099616 513.49006562 417.102454143 508.201915623M417.039020793 508.248873518C417.039020793 508.248873518 416.258396881 508.703215742 416.258396881 508.703215742C416.258396881 508.703215742 412.938471992 512.145386485 412.938471992 512.145386485C411.087003042 515.411927099 407.766697846 517.859457503 410.186312162 512.074051755M410.129578659 512.132668971C410.129578659 512.132668971 409.431404436 512.730493214 409.431404436 512.730493214C409.431404436 512.730493214 406.450369751 516.698064735 406.450369751 516.698064735C404.835968629 520.298109658 401.890678178 523.192531691 404.039744057 517.079275363M403.989354193 517.145579801C403.989354193 517.145579801 403.371632885 517.840391363 403.371632885 517.840391363C403.371632885 517.840391363 400.831809279 522.289362209 400.831809279 522.289362209C399.433183432 526.10518253 397.095578818 529.524944041 398.816765724 523.041110549M398.776408481 523.116104034C398.776408481 523.116104034 398.279763904 523.915458018 398.279763904 523.915458018C398.279763904 523.915458018 396.23699528 528.747512675 396.23699528 528.747512675C395.171874084 532.800401289 393.331853431 536.512851565 394.686105162 529.806100652M394.65435157 529.886320955C394.65435157 529.886320955 394.27621466 530.756085433 394.27621466 530.756085433C394.27621466 530.756085433 392.806235611 535.892751776 392.806235611 535.892751776C392.022204238 540.081049683 390.954171483 544.094700107 391.766046698 537.174303807M391.747010389 537.259533525C391.747010389 537.259533525 391.512745638 538.184856717 391.512745638 538.184856717C391.512745638 538.184856717 390.652807608 543.520332148 390.652807608 543.520332148C390.276866869 547.824373309 389.781884328 551.944838122 390.156667103 544.935050517M390.147879446 545.022376223C390.147879446 545.022376223 390.04480065 545.974007634 390.04480065 545.974007634C390.04480065 545.974007634 389.835013341 551.403891927 389.835013341 551.403891927C389.78094179 555.740588407 389.947374781 559.889302862 389.872203696 552.856722878M389.875946504 552.944482614C389.875946504 552.944482614 389.941001641 553.899977748 389.941001641 553.899977748C389.941001641 553.899977748 390.342090818 559.314287692 390.342090818 559.314287692C390.611691257 563.634588245 391.622999032 567.6663031 390.95453735 560.708983846M390.970210994 560.795079309C390.970210994 560.795079309 391.163094096 561.731056536 391.163094096 561.731056536C391.163094096 561.731056536 392.213772535 567.016475575 392.213772535 567.016475575C392.898932942 571.240995469 394.435395011 575.092081594 393.345469941 568.265798911M393.371025777 568.348821916C393.371025777 568.348821916 393.712714956 569.235480975 393.712714956 569.235480975C393.712714956 569.235480975 395.35611352 574.293312414 395.35611352 574.293312414C396.330289431 578.395624638 398.608124715 581.859984297 397.005080935 575.296314056M397.042668037 575.373179499C397.042668037 575.373179499 397.505222683 576.195570196 397.505222683 576.195570196C397.505222683 576.195570196 399.709630917 580.917109279 399.709630917 580.917109279C401.029616578 584.797837768 403.738041727 587.921495214 401.793738012 581.613012827M401.83932675 581.683894795C401.83932675 581.683894795 402.428247165 582.407295592 402.428247165 582.407295592C402.428247165 582.407295592 405.106045081 586.723137773 405.106045081 586.723137773C406.720446153 590.323182755 409.929036959 592.914108223 407.594540718 587.014908355M407.64927843 587.076193739C407.64927843 587.076193739 408.322892025 587.706853018 408.322892025 587.706853018C408.322892025 587.706853018 411.41932668 591.516364706 411.41932668 591.516364706C413.217295598 594.870926089 416.85674195 596.793337786 414.214211326 591.374865484M414.276171623 591.424879089C414.276171623 591.424879089 415.03866784 591.916825519 415.03866784 591.916825519C415.03866784 591.916825519 418.446323137 595.182851052 418.446323137 595.182851052C420.433200553 598.168303675 424.301188896 599.53928868 421.488771504 594.522590863M421.554715192 594.563183928C421.554715192 594.563183928 422.366231851 594.939199241 422.366231851 594.939199241C422.366231851 594.939199241 426.001381421 597.579434344 426.001381421 597.579434344C428.08251916 600.261710179 432.134740889 600.84102717 429.189173951 596.402019124M429.258239641 596.429066904C429.258239641 596.429066904 430.108176299 596.638391145 430.108176299 596.638391145C430.108176299 596.638391145 433.852656731 598.669255395 433.852656731 598.669255395C435.982452404 601.032858966 440.069256029 601.002628174 437.099626848 596.937033346M437.169256734 596.955325582C437.169256734 596.955325582 438.026136497 597.056902285 438.026136497 597.056902285C438.026136497 597.056902285 441.78907546 598.733004387 441.78907546 598.733004387C443.92526487 600.935413363 448.006723744 601.006302928 445.037094564 596.940708099M445.106724449 596.959000335C445.106724449 596.959000335 445.963604213 597.060577039 445.963604213 597.060577039C445.963604213 597.060577039 449.726543175 598.73667914 449.726543175 598.73667914C451.862732586 600.939088117 455.94419146 601.009977681 452.974562279 596.944382853M453.044192164 596.962675089C453.044192164 596.962675089 453.901071928 597.064251793 453.901071928 597.064251793C453.901071928 597.064251793 457.66401089 598.740353894 457.66401089 598.740353894C459.800200301 600.942762871 463.881659175 601.013652435 460.912029994 596.948057606M460.981659879 596.966349843C460.981659879 596.966349843 461.838539643 597.067926546 461.838539643 597.067926546C461.838539643 597.067926546 465.601478605 598.744028648 465.601478605 598.744028648C467.737668016 600.946437624 471.81912689 601.017327188 468.849497709 596.95173236M468.919127595 596.970024596C468.919127595 596.970024596 469.776007358 597.0716013 469.776007358 597.0716013C469.776007358 597.0716013 473.53894632 598.747703401 473.53894632 598.747703401C475.675135731 600.950112378 479.756594605 601.021001942 476.786965424 596.955407114M476.85659531 596.97369935C476.85659531 596.97369935 477.713475074 597.075276053 477.713475074 597.075276053C477.713475074 597.075276053 481.476414036 598.751378155 481.476414036 598.751378155C483.612603446 600.953787131 487.694062321 601.024676696 484.72443314 596.959081867M484.794063025 596.977374103C484.794063025 596.977374103 485.650942789 597.078950807 485.650942789 597.078950807C485.650942789 597.078950807 489.413881751 598.755052908 489.413881751 598.755052908C491.550071162 600.957461885 495.631530036 601.028351449 492.661900855 596.962756621M492.73153074 596.981048857C492.73153074 596.981048857 493.588410504 597.08262556 493.588410504 597.08262556C493.588410504 597.08262556 497.351349466 598.758727662 497.351349466 598.758727662C499.487538877 600.961136638 503.568997751 601.032026203 500.59936857 596.966431374M500.668998456 596.98472361C500.668998456 596.98472361 501.525878219 597.086300314 501.525878219 597.086300314C501.525878219 597.086300314 505.288159442 598.722736052 505.288159442 598.722736052C507.423435778 600.870080095 511.474020984 600.413000227 508.528462438 596.723632478M508.597527931 596.733103192C508.597527931 596.733103192 509.447462168 596.726120426 509.447462168 596.726120426C509.447462168 596.726120426 513.161147883 597.803881088 513.161147883 597.803881088C515.242252466 599.524302898 519.169012077 598.482281782 516.312917388 595.230222603M516.379885193 595.229439597C516.379885193 595.229439597 517.204004836 595.096272435 517.204004836 595.096272435C517.204004836 595.096272435 520.753740869 595.528057894 520.753740869 595.528057894C522.740484751 596.945107858 526.439305719 595.286129805 523.734207407 592.446404831M523.797634748 592.435953688C523.797634748 592.435953688 524.561685141 592.149601549 524.561685141 592.149601549C524.561685141 592.149601549 527.855334455 592.007340796 527.855334455 592.007340796C529.652927779 593.055034596 532.978959742 590.759260073 530.559969231 588.417101698M530.616688108 588.394983945C530.616688108 588.394983945 531.314682332 587.999266969 531.314682332 587.999266969C531.314682332 587.999266969 534.239841897 587.309358816 534.239841897 587.309358816C535.853645894 588.111465315 538.665031029 585.218213276 536.617015624 583.304031776M536.665036124 583.271879106C536.665036124 583.271879106 537.255986323 582.752670375 537.255986323 582.752670375C537.255986323 582.752670375 539.750112651 581.611867549 539.750112651 581.611867549C541.069251929 582.133314211 543.424930924 578.869445573 541.704975188 577.225714357M541.745303563 577.187220349C541.745303563 577.187220349 542.240834798 576.589462072 542.240834798 576.589462072C542.240834798 576.589462072 544.206877933 575.05700318 544.206877933 575.05700318C545.271075098 575.406423174 546.925981499 571.740354405 545.703298612 570.382053137M545.731967266 570.336866559C545.731967266 570.336866559 546.084769639 569.657259847 546.084769639 569.657259847C546.084769639 569.657259847 547.489328637 567.842880914 547.489328637 567.842880914C548.173690514 568.020930381 549.272823849 564.159243901 548.461947467 562.951484544M548.480960356 562.902768159C548.480960356 562.902768159 548.711450547 562.178826537 548.711450547 562.178826537C548.711450547 562.178826537 549.482322704 560.171617469 549.482322704 560.171617469C549.857756248 560.270325138 550.150441162 556.264925788 549.925311538 555.161472716M549.930590227 555.110310627C549.930590227 555.110310627 549.995550869 554.357168046 549.995550869 554.357168046C549.995550869 554.357168046 550.154970186 552.273577566 550.154970186 552.273577566C550.100976345 552.339718444 549.801778355 548.338922518 550.026908931 547.235469374M550.02163022 547.184307287C550.02163022 547.184307287 549.956669303 546.431164727 549.956669303 546.431164727C549.956669303 546.431164727 549.464522495 544.377081712 549.464522495 544.377081712C549.089088478 544.475789465 548.136843948 540.575333499 548.804439576 539.404413411M548.788786239 539.354833243C548.788786239 539.354833243 548.57489464 538.626623917 548.57489464 538.626623917C548.57489464 538.626623917 547.456882386 536.709579778 547.456882386 536.709579778C546.772520339 536.887629302 545.032395865 533.258180358 546.255078757 531.899879089M546.226410103 531.85469251C546.226410103 531.85469251 545.873607729 531.175085799 545.873607729 531.175085799C545.873607729 531.175085799 544.156425613 529.503581299 544.156425613 529.503581299C543.092228569 529.853001223 540.86217543 526.502985986 542.463949826 524.939029969M542.426392488 524.898665446C542.426392488 524.898665446 541.944552352 524.291665351 541.944552352 524.291665351C541.944552352 524.291665351 539.687575611 522.956871289 539.687575611 522.956871289C538.368436554 523.478317779 535.493246277 520.6412175 537.541261365 518.727036302M537.493240872 518.694883626C537.493240872 518.694883626 536.902290765 518.175674806 536.902290765 518.175674806C536.902290765 518.175674806 534.163337318 517.272683691 534.163337318 517.272683691C532.54953352 518.074789959 529.313058233 515.655559664 531.64682719 513.427243797M531.592106532 513.402456741C531.592106532 513.402456741 530.896920172 513.002988899 530.896920172 513.002988899C530.896920172 513.002988899 527.768842149 512.588440544 527.768842149 512.588440544C525.917679765 513.724207882 522.287533107 511.928658791 524.929727607 509.219345723M524.867775192 509.205836769C524.867775192 509.205836769 524.105375963 508.916061447 524.105375963 508.916061447C524.105375963 508.916061447 520.65955788 509.083134885 520.65955788 509.083134885C518.672813966 510.500184932 514.788748823 509.311021707 517.6010391 506.199653421M517.534874583 506.19629042C517.534874583 506.19629042 516.710754909 506.063123364 516.710754909 506.063123364C516.710754909 506.063123364 513.062080999 506.823697899 513.062080999 506.823697899C510.959476495 508.649085194 506.912202585 508.195680841 509.857761232 504.506312286"
       style="fill:none;fill-rule:evenodd;stroke:#000000;stroke-width:0.11697467px;stroke-linecap:butt;stroke-linejoin:miter;stroke-opacity:1" />
  </g>
</svg>
