<?xml version="1.0" encoding="UTF-8" standalone="no"?>
<!-- Created with Inkscape (http://www.inkscape.org/) -->
<svg
   xmlns:dc="http://purl.org/dc/elements/1.1/"
   xmlns:cc="http://creativecommons.org/ns#"
   xmlns:rdf="http://www.w3.org/1999/02/22-rdf-syntax-ns#"
   xmlns:svg="http://www.w3.org/2000/svg"
   xmlns="http://www.w3.org/2000/svg"
   xmlns:sodipodi="http://sodipodi.sourceforge.net/DTD/sodipodi-0.dtd"
   xmlns:inkscape="http://www.inkscape.org/namespaces/inkscape"
   width="744.09448819"
   height="1052.3622047"
   id="svg3322"
   sodipodi:version="0.32"
   inkscape:version="0.46"
   sodipodi:docname="band-saw.svg"
   inkscape:output_extension="org.inkscape.output.svg.inkscape">
  <sodipodi:namedview
     id="base"
     pagecolor="#ffffff"
     bordercolor="#666666"
     borderopacity="1.0"
     gridtolerance="10000"
     guidetolerance="10"
     objecttolerance="10"
     inkscape:pageopacity="0.0"
     inkscape:pageshadow="2"
     inkscape:zoom="2.8284271"
     inkscape:cx="413.80641"
     inkscape:cy="423.5042"
     inkscape:document-units="px"
     inkscape:current-layer="layer1"
     showgrid="false"
     inkscape:window-width="1918"
     inkscape:window-height="1038"
     inkscape:window-x="0"
     inkscape:window-y="0" />
  <defs
     id="defs3324">
    <inkscape:perspective
       id="perspective3330"
       inkscape:persp3d-origin="410.04724 : 344.03739 : 1"
       inkscape:vp_z="782.09448 : 519.43109 : 1"
       inkscape:vp_y="6.1230318e-14 : 1000 : 0"
       inkscape:vp_x="38 : 519.43109 : 1"
       sodipodi:type="inkscape:persp3d" />
  </defs>
  <metadata
     id="metadata3327">
    <rdf:RDF>
      <cc:Work
         rdf:about="">
        <dc:format>image/svg+xml</dc:format>
        <dc:type
           rdf:resource="http://purl.org/dc/dcmitype/StillImage" />
      </cc:Work>
    </rdf:RDF>
  </metadata>
  <g
     id="layer1"
     inkscape:groupmode="layer"
     inkscape:label="Layer 1">
    <g
       id="g5313"
       style="opacity:1;fill:#ececec;fill-opacity:1;fill-rule:evenodd;stroke:#000000;stroke-width:1;stroke-miterlimit:4;stroke-dasharray:none;stroke-opacity:1"
       transform="translate(-6,-1.75)"
       inkscape:export-filename="/home/fenn/code/skdb/icons/bandsaw.png"
       inkscape:export-xdpi="90"
       inkscape:export-ydpi="90">
      <path
         d="M 481.25,609.75682 L 616,633.11218 L 650.66882,612.20143"
         style="fill:#ececec;fill-rule:evenodd;stroke:#000000;stroke-width:1;stroke-linecap:butt;stroke-linejoin:round;stroke-opacity:1;stroke-miterlimit:4;stroke-dasharray:none"
         id="path5329"
         sodipodi:nodetypes="ccc" />
      <path
         d="M 566.96734,587.65732 L 650.66882,596.31695 L 650.66882,612.20143 M 531.86879,584.02607 L 560.24936,586.96228"
         style="fill:#ececec;fill-rule:evenodd;stroke:#000000;stroke-width:1;stroke-linecap:butt;stroke-linejoin:round;stroke-opacity:1;stroke-miterlimit:4;stroke-dasharray:none"
         id="path5333"
         sodipodi:nodetypes="ccccc" />
      <path
         d="M 560.1875,586.95588 L 531.86879,584.02607 L 481.25,594.3622 L 616,613.03753 L 650.66882,596.31695 L 567.04516,587.66537"
         style="fill:#ececec;fill-rule:evenodd;stroke:#000000;stroke-width:1;stroke-linecap:butt;stroke-linejoin:round;stroke-opacity:1;stroke-miterlimit:4;stroke-dasharray:none;fill-opacity:1"
         id="path5335"
         sodipodi:nodetypes="cccccc" />
      <path
         d="M 616,613.03753 L 616,633.11218 L 650.66882,612.20143 L 650.66882,596.31695 L 616,613.03753 z"
         style="fill:#ececec;fill-rule:evenodd;stroke:#000000;stroke-width:1;stroke-linecap:butt;stroke-linejoin:round;stroke-opacity:1;stroke-miterlimit:4;stroke-dasharray:none"
         id="path5337" />
      <path
         d="M 481.25,594.3622 L 616,613.03753 L 616,633.11218 L 481.25,609.75682 L 481.25,594.3622 z"
         style="fill:#ececec;fill-rule:evenodd;stroke:#000000;stroke-width:1;stroke-linecap:butt;stroke-linejoin:round;stroke-opacity:1;stroke-miterlimit:4;stroke-dasharray:none"
         id="path5339" />
    </g>
    <path
       style="fill:none;fill-rule:evenodd;stroke:#000000;stroke-width:1;stroke-linecap:butt;stroke-linejoin:miter;stroke-opacity:1;stroke-miterlimit:4;stroke-dasharray:none"
       d="M 494.25,588.61218 C 495.46301,588.76344 500.0575,590.02368 503,590.61218 C 505.87386,591.18696 508.57026,591.36218 511.5,591.36218 C 514.26996,591.36218 516.95901,590.86218 519.75,590.86218 C 522.25,590.86218 524.75,590.86218 527.25,590.86218 C 530.08333,590.86218 532.91666,590.86218 535.75,590.86218 C 538.66121,590.86218 541,591.66744 541,594.86218 C 541,597.35032 546.19966,597.36218 547.75,597.36218 C 550.44549,597.36218 551.1316,597.46631 553.65901,596.83445 C 556.32152,596.16883 560.36039,597.32728 562.5,597.86218 C 563.04232,597.99777 564.20711,598.27379 564.70711,598.52379"
       id="path5349"
       sodipodi:nodetypes="csssssssssc"
       inkscape:export-filename="/home/fenn/code/skdb/icons/bandsaw.png"
       inkscape:export-xdpi="90"
       inkscape:export-ydpi="90" />
    <g
       id="g6338"
       inkscape:export-filename="/home/fenn/code/skdb/icons/bandsaw.png"
       inkscape:export-xdpi="90"
       inkscape:export-ydpi="90">
      <path
         inkscape:export-ydpi="90"
         inkscape:export-xdpi="90"
         inkscape:export-filename="/home/fenn/code/skdb/icons/bandsaw.png"
         sodipodi:nodetypes="ccs"
         id="path5387"
         d="M 494.25,544.11218 C 494.25,534.59018 501.978,526.86218 511.5,526.86218 C 521.022,526.86218 530.16421,535.91601 528.75,545.52639"
         style="fill:none;fill-opacity:1;fill-rule:evenodd;stroke:#000000;stroke-width:1;stroke-linecap:round;stroke-linejoin:round;stroke-miterlimit:4;stroke-opacity:1" />
      <path
         inkscape:export-ydpi="90"
         inkscape:export-xdpi="90"
         inkscape:export-filename="/home/fenn/code/skdb/icons/bandsaw.png"
         id="path5392"
         d="M 523,540.61218 L 528.75,546.36218 L 533.75,540.61218"
         style="fill:none;fill-rule:evenodd;stroke:#000000;stroke-width:1px;stroke-linecap:butt;stroke-linejoin:miter;stroke-opacity:1" />
    </g>
    <path
       id="path6281"
       style="fill:#ffffff;fill-rule:evenodd;stroke:#000000;stroke-width:1;stroke-linecap:round;stroke-linejoin:round;stroke-miterlimit:4;stroke-dasharray:none;stroke-opacity:1"
       d="M 511.6293,667.87611 C 512.57093,667.925 513.50496,667.92355 513.95574,667.83145 M 514.50773,507.76451 C 513.03123,507.82075 511.39387,507.88312 511.39387,507.88312 C 507.06263,508.04507 502.98352,508.84412 509.97083,508.32221 M 506.01605,666.49687 C 506.01605,666.49687 506.91954,666.74139 506.91954,666.74139 C 506.91954,666.74139 508.93536,667.46955 508.93536,667.46955 C 508.88654,667.62902 510.26587,667.80533 511.6293,667.87611 M 517.96829,507.65991 C 510.93571,507.58485 515.08721,507.63299 519.41845,507.79493 C 519.41845,507.79493 524.83126,508.20827 524.83126,508.20827 C 524.83126,508.20827 525.99374,508.39381 525.97688,508.39115 C 518.97269,507.86657 523.06,508.57994 527.3427,509.06017 C 527.3427,509.06017 532.6217,510.13353 532.6217,510.13353 C 532.6217,510.13353 533.74494,510.47185 533.72865,510.46694 C 526.83535,509.51066 530.77447,510.81497 534.92238,511.6945 C 534.92238,511.6945 539.96874,513.3606 539.96874,513.3606 C 539.96874,513.3606 541.00732,513.88655 540.99223,513.87898 C 534.33837,512.39203 538.0006,514.34463 541.94318,515.58188 C 541.94318,515.58188 546.64079,517.81999 546.64079,517.81999 C 546.64079,517.81999 547.51726,518.37455 547.57015,518.4751 C 541.24731,516.52197 544.42752,519.16474 548.17556,520.63797 C 548.17556,520.63797 552.45438,523.35106 552.45438,523.35106 C 552.45438,523.35106 553.33552,524.17073 553.25736,524.13716 C 547.23602,521.88226 550.02206,524.93468 553.46224,526.67477 C 553.46224,526.67477 557.23932,529.79365 557.23932,529.79365 C 557.23932,529.79365 557.8993,530.70243 557.88981,530.68927 C 552.33467,528.10272 554.45459,531.63152 557.63066,533.53217 C 557.63066,533.53217 560.82971,536.97011 560.82971,536.97011 C 560.82971,536.97011 561.34064,537.952 561.33314,537.93788 C 556.17103,535.16188 557.7607,538.95329 560.54635,541.0078 C 560.54635,541.0078 563.14116,544.65487 563.14116,544.65487 C 563.14116,544.65487 563.45302,545.69346 563.44843,545.67851 C 558.85687,542.74062 559.6563,546.75608 562.12736,548.87496 C 562.12736,548.87496 564.06157,552.6268 564.06157,552.6268 C 564.06157,552.6268 564.21157,553.6821 564.20927,553.66692 C 560.06757,550.68338 560.22179,554.7634 562.42223,556.89959 C 562.42223,556.89959 564.09484,560.66253 564.09484,560.66253 C 564.09484,560.66253 564.21764,561.71828 564.21573,561.7031 C 560.15096,558.71828 560.21807,562.79974 562.41851,564.93593 C 562.41851,564.93593 564.09112,568.69887 564.09112,568.69887 C 564.09112,568.69887 564.21391,569.75461 564.212,569.73942 C 560.14724,566.75462 560.21435,570.83607 562.41478,572.97226 C 562.41478,572.97226 564.0874,576.7352 564.0874,576.7352 C 564.0874,576.7352 564.21019,577.79095 564.20828,577.77577 C 560.14352,574.79095 560.21063,578.87241 562.41106,581.0086 C 562.41106,581.0086 564.08368,584.77154 564.08368,584.77154 C 564.08368,584.77154 564.20647,585.82729 564.20456,585.8121 C 560.1398,582.82729 560.20691,586.90875 562.40734,589.04494 C 562.40734,589.04494 564.07996,592.80788 564.07996,592.80788 C 564.07996,592.80788 564.20275,593.86363 564.20084,593.84844 C 557.83645,590.76936 562.33549,597.65039 563.40354,597.92249 C 558.38047,596.19433 553.99248,596.70156 554.25454,596.70113 C 554.26365,583.622 554.18715,569.8777 554.18715,554.06139 C 554.18715,529.84849 535.61362,509.96537 511.94986,507.84265 M 514.50773,507.76451 C 515.72005,507.71834 516.82391,507.67629 516.82391,507.67629 C 516.82391,507.67629 518.00249,507.66067 518.00249,507.66067 M 513.72571,667.61311 C 536.52113,664.66305 554.15587,645.15443 554.1559,621.56139 L 563.34461,623.18646 C 563.64712,623.99238 563.93004,624.94921 563.93004,624.94921 C 563.93004,624.94921 563.97317,626.0018 563.9724,625.98666 C 560.13287,623.01078 559.93093,627.08797 561.7564,629.19059 C 561.7564,629.19059 562.66976,632.87418 562.66976,632.87418 C 562.66976,632.87418 562.51862,633.89325 562.52085,633.87865 C 559.27074,631.00786 558.24508,634.93998 559.76134,636.96308 C 559.76134,636.96308 560.04093,640.45567 560.04093,640.45567 C 560.04093,640.45567 559.72909,641.41747 559.73343,641.40364 C 556.89747,638.68445 555.31208,642.4199 556.44838,644.27137 C 556.44838,644.27137 556.15619,647.47787 556.15619,647.47787 C 556.15619,647.47787 555.66941,648.33933 555.67629,648.32695 C 553.34014,645.89497 551.04906,649.22462 551.9305,650.90393 C 551.9305,650.90393 551.10437,653.71356 551.10437,653.71356 C 551.10437,653.71356 550.49515,654.47355 550.50421,654.46307 C 548.59813,652.40355 545.7464,655.256 546.33342,656.65462 C 546.33342,656.65462 545.07199,659.0054 545.07199,659.0054 C 545.07199,659.0054 544.33506,659.61731 544.34551,659.60851 C 542.71136,657.87852 539.49471,660.3111 539.84466,661.37622 C 539.84466,661.37622 538.21762,663.17885 538.21762,663.17885 C 538.21762,663.17885 537.39013,663.63685 537.40205,663.6306 C 536.0551,662.4004 532.41811,664.11153 532.63265,664.89556 C 532.63265,664.89556 530.74588,666.10449 530.74588,666.10449 C 530.74588,666.10449 529.85374,666.39312 529.86642,666.38897 C 528.67107,665.57294 524.82513,666.74749 524.92393,667.12343 C 524.92393,667.12343 522.88055,667.6945 522.88055,667.6945 C 522.88055,667.6945 521.95385,667.80033 521.96707,667.79918 C 520.87681,667.57257 516.87846,667.91975 516.9446,667.97382 C 516.9446,667.97382 514.85861,667.90929 514.85861,667.90929 C 514.85861,667.90929 513.9293,667.82914 513.9293,667.82914"
       sodipodi:nodetypes="ccccccccccccscccccccccccccccccccccccccccccccccccccccccscccccccccccccccccccccccccccccccccccc"
       inkscape:export-filename="/home/fenn/code/skdb/icons/bandsaw.png"
       inkscape:export-xdpi="90"
       inkscape:export-ydpi="90" />
    <path
       id="path6352"
       style="opacity:1;fill:#ffffff;fill-opacity:1;stroke:#000000;stroke-width:1;stroke-miterlimit:4;stroke-dasharray:none;stroke-opacity:1"
       d="M 513.72571,667.61311 C 513.9831,667.74694 507.21226,667.22144 506.04142,666.50517 C 504.17712,666.59829 500.96113,666.2517 501.13945,665.56654 C 501.13945,665.56654 499.2989,664.22838 499.2989,664.22838 C 499.2989,664.22838 498.46038,663.79325 498.47229,663.79951 C 497.12534,665.0297 493.43147,663.42884 493.78142,662.36372 C 493.78142,662.36372 492.23377,660.42267 492.23377,660.42267 C 492.23377,660.42267 491.47895,659.83725 491.4894,659.84605 C 489.85524,661.57604 486.57685,659.23968 487.09896,657.9197 C 487.09896,657.9197 485.92504,655.46384 485.92504,655.46384 C 485.92504,655.46384 485.28429,654.73537 485.29336,654.74585 C 483.38727,656.80537 480.46412,654.02235 481.26692,652.40795 C 481.26692,652.40795 480.55202,649.50271 480.55202,649.50271 C 480.55202,649.50271 480.05536,648.64851 480.06224,648.66088 C 477.72608,651.09287 475.41727,647.77561 476.46554,645.97764 C 476.46554,645.97764 476.29404,642.70083 476.29404,642.70083 C 476.29404,642.70083 475.93586,641.76136 475.94087,641.77488 C 473.2359,644.43092 471.43047,640.80201 472.84785,638.81514 C 472.84785,638.81514 473.25532,635.27362 473.25532,635.27362 C 473.25532,635.27362 473.08997,634.2582 473.0922,634.27281 C 469.84209,637.14359 468.79237,633.2188 470.51294,631.13766 C 470.51294,631.13766 471.57418,627.42693 471.57418,627.42693 C 471.57418,627.42693 471.56422,626.37973 471.56421,626.3948 C 467.87477,629.35543 467.41068,625.30537 469.55803,623.17009 C 469.55803,623.17009 471.19265,619.40784 471.19265,619.40784 C 471.19265,619.40784 471.31642,618.35209 471.31449,618.36727 C 467.24697,621.35209 467.31786,617.27063 469.52027,615.13444 C 469.52027,615.13444 471.19637,611.3715 471.19637,611.3715 C 471.19637,611.3715 471.32014,610.31575 471.31821,610.33093 C 467.25069,613.31575 467.32158,609.23429 469.52399,607.09811 C 469.52399,607.09811 471.20009,603.33517 471.20009,603.33517 C 471.20009,603.33517 471.32386,602.27942 471.32193,602.29461 C 467.25441,605.27942 467.3253,601.19796 469.52771,599.06177 C 469.52771,599.06177 471.20381,595.29883 471.20381,595.29883 C 471.20381,595.29883 471.32758,594.24308 471.32565,594.25827 C 467.25813,597.24308 467.32902,593.16162 469.53143,591.02543 C 469.53143,591.02543 471.20753,587.26249 471.20753,587.26249 C 471.20753,587.26249 471.3313,586.20674 471.32937,586.22193 C 467.26185,589.20674 467.33274,585.12528 469.53515,582.98909 C 469.53515,582.98909 471.21125,579.22615 471.21125,579.22615 C 471.21125,579.22615 471.33502,578.1704 471.33309,578.18559 C 467.26557,581.1704 467.33646,577.08894 469.53887,574.95275 C 469.53887,574.95275 471.21497,571.18982 471.21497,571.18982 C 471.21497,571.18982 471.33874,570.13407 471.33681,570.14926 C 467.26929,573.13406 467.34018,569.05261 469.54259,566.91642 C 469.54259,566.91642 471.21869,563.15348 471.21869,563.15348 C 471.21869,563.15348 471.34246,562.09773 471.34054,562.11292 C 467.27301,565.09773 467.3439,561.01627 469.54631,558.88008 C 469.54631,558.88008 471.22241,555.11714 471.22241,555.11714 C 471.22241,555.11714 471.34618,553.35428 471.35422,553.31456 C 467.22287,556.2432 467.37037,552.16223 469.73399,550.03243 C 469.73399,550.03243 471.88228,546.30169 471.88228,546.30169 C 471.88228,546.30169 472.1914,545.26254 472.18681,545.27749 C 467.59525,548.21537 468.32195,544.18109 471.1076,542.12657 C 471.1076,542.12657 473.8975,538.5344 473.8975,538.5344 C 473.8975,538.5344 474.38747,537.54483 474.37998,537.55895 C 469.21787,540.33495 470.75925,536.52791 473.84151,534.58201 C 473.84151,534.58201 477.23651,531.23793 477.23651,531.23793 C 477.23651,531.23793 477.88646,530.32304 477.87697,530.3362 C 472.32183,532.92276 474.39511,529.36241 477.83529,527.62232 C 477.83529,527.62232 481.77359,524.61838 481.77359,524.61838 C 481.77359,524.61838 482.58491,523.81789 482.57304,523.82936 C 476.5517,526.08427 479.28765,522.99487 482.96373,521.44962 C 482.96373,521.44962 487.39333,518.8894 487.39333,518.8894 C 487.39333,518.8894 488.31731,518.20159 488.30345,518.21096 C 481.88995,520.05415 485.13818,517.49285 489.08076,516.2556 C 489.08076,516.2556 493.90102,514.1944 493.90102,514.1944 C 493.90102,514.1944 494.9396,513.66845 494.92451,513.67602 C 488.27065,515.16298 491.84185,513.05297 495.98976,512.17344 C 495.98976,512.17344 501.12429,510.6984 501.12429,510.6984 C 501.12429,510.6984 502.23707,510.33151 502.22077,510.33637 C 495.32745,511.2926 499.25118,509.94909 503.50738,509.36579 C 503.50738,509.36579 508.84208,508.50242 508.84208,508.50242 C 508.84208,508.50242 511.91081,507.84812 511.93034,507.84538 C 510.56629,507.71854 509.16532,507.65514 507.74965,507.65514 C 482.12108,507.65514 461.31214,528.43282 461.31215,554.06139 C 461.31216,579.68996 461.2809,595.93282 461.2809,621.56139 C 461.2809,647.18996 482.08982,667.99892 507.7184,667.99889 C 509.75391,667.99889 511.75902,667.86763 513.72571,667.61311 z"
       sodipodi:nodetypes="ccccccccccccccccccccccccccccccccccccccccccccccccccccccccccccccccccccccccccssssc"
       inkscape:export-filename="/home/fenn/code/skdb/icons/bandsaw.png"
       inkscape:export-xdpi="90"
       inkscape:export-ydpi="90" />
    <path
       style="fill:#cccccc;fill-rule:evenodd;stroke:#000000;stroke-width:0.3;stroke-linecap:butt;stroke-linejoin:miter;stroke-opacity:1;stroke-miterlimit:4;stroke-dasharray:none"
       d="M 564.6875,640.17468 C 564.56078,639.66778 565.6025,640.79968 566.125,640.79968 C 566.78017,640.79968 567.42489,640.85725 567.9375,640.54968 C 568.29314,640.3363 568.73755,638.68737 569,639.73718 C 569.17391,640.43283 568.56352,641.04917 568.0625,641.29968 C 567.51334,641.57426 566.8254,641.75484 566.3125,641.54968 C 565.47695,641.21546 565.10313,641.00593 564.6875,640.17468 z"
       id="path6407"
       inkscape:export-filename="/home/fenn/code/skdb/icons/bandsaw.png"
       inkscape:export-xdpi="90"
       inkscape:export-ydpi="90" />
    <path
       style="fill:#cccccc;fill-rule:evenodd;stroke:#000000;stroke-width:0.3;stroke-linecap:butt;stroke-linejoin:miter;stroke-opacity:1;stroke-miterlimit:4;stroke-dasharray:none"
       d="M 558.5,650.67468 C 557.95804,650.4579 559.39554,651.4579 559.9375,651.67468 C 560.50722,651.90257 561.11223,652.39982 561.8125,652.04968 C 562.73806,651.5869 562.83957,651.71211 563,652.67468 C 563.08004,653.15491 562.393,654.11431 562.0625,654.36218 C 561.62009,654.69399 560.8692,653.76408 560.5,653.48718 C 559.94118,653.06807 559.56579,652.55297 559.125,652.11218 C 558.73013,651.71731 558.67642,651.20394 558.5,650.67468 z"
       id="path6405"
       inkscape:export-filename="/home/fenn/code/skdb/icons/bandsaw.png"
       inkscape:export-xdpi="90"
       inkscape:export-ydpi="90" />
    <path
       style="fill:#cccccc;fill-rule:evenodd;stroke:#000000;stroke-width:0.3;stroke-linecap:butt;stroke-linejoin:miter;stroke-opacity:1;stroke-miterlimit:4;stroke-dasharray:none"
       d="M 560.4375,659.92468 C 560.1875,659.67468 559.97034,660.46255 559.6875,660.67468 C 559.09376,661.11999 558.38742,661.04968 557.6875,661.04968 C 556.83614,661.04968 556.6053,660.90158 556.1875,661.73718 C 555.81396,662.48427 556.27357,662.91382 556.8125,663.23718 C 557.39716,663.58798 558.1027,663.38338 558.6875,663.23718 C 559.56472,663.01788 559.45602,662.2256 559.625,661.54968 C 559.81726,660.78063 560.14898,660.64599 560.4375,659.92468 z"
       id="path6403"
       inkscape:export-filename="/home/fenn/code/skdb/icons/bandsaw.png"
       inkscape:export-xdpi="90"
       inkscape:export-ydpi="90" />
    <path
       style="fill:#cccccc;fill-rule:evenodd;stroke:#000000;stroke-width:0.3;stroke-linecap:butt;stroke-linejoin:miter;stroke-opacity:1;stroke-miterlimit:4;stroke-dasharray:none"
       d="M 569.22096,655.41011 C 569.22096,655.13091 568.24869,656.38202 568.24869,657.61982 C 568.24869,658.83331 568.89113,659.00817 569.83968,659.38759 C 570.76964,659.75957 572.12553,658.8542 570.72356,658.5037 C 569.87146,658.29068 569.13257,657.31443 569.13257,656.47077 C 569.13257,655.96621 569.35444,655.94402 569.22096,655.41011 z"
       id="path6401"
       inkscape:export-filename="/home/fenn/code/skdb/icons/bandsaw.png"
       inkscape:export-xdpi="90"
       inkscape:export-ydpi="90" />
    <path
       style="fill:#cccccc;fill-rule:evenodd;stroke:#000000;stroke-width:0.3;stroke-linecap:butt;stroke-linejoin:miter;stroke-opacity:1;stroke-miterlimit:4;stroke-dasharray:none"
       d="M 563.375,626.29968 C 563.375,626.90095 563.48323,627.2951 563.625,627.86218 C 563.82459,628.66054 563.72236,628.99824 563.125,629.23718 C 562.4667,629.5005 563.29468,630.255 563.875,629.67468 C 564.29209,629.2576 564.57479,628.57426 564.25,627.92468 C 563.84919,627.12305 563.22799,626.15267 563.375,626.29968 z"
       id="path5375"
       inkscape:export-filename="/home/fenn/code/skdb/icons/bandsaw.png"
       inkscape:export-xdpi="90"
       inkscape:export-ydpi="90" />
  </g>
</svg>
