<?xml version="1.0" encoding="UTF-8" standalone="no"?>
<!-- Created with Inkscape (http://www.inkscape.org/) -->
<svg
   xmlns:dc="http://purl.org/dc/elements/1.1/"
   xmlns:cc="http://creativecommons.org/ns#"
   xmlns:rdf="http://www.w3.org/1999/02/22-rdf-syntax-ns#"
   xmlns:svg="http://www.w3.org/2000/svg"
   xmlns="http://www.w3.org/2000/svg"
   xmlns:sodipodi="http://sodipodi.sourceforge.net/DTD/sodipodi-0.dtd"
   xmlns:inkscape="http://www.inkscape.org/namespaces/inkscape"
   width="744.09448819"
   height="1052.3622047"
   id="svg3322"
   sodipodi:version="0.32"
   inkscape:version="0.46"
   sodipodi:docname="band-saw.svg"
   inkscape:output_extension="org.inkscape.output.svg.inkscape">
  <sodipodi:namedview
     id="base"
     pagecolor="#ffffff"
     bordercolor="#666666"
     borderopacity="1.0"
     gridtolerance="10000"
     guidetolerance="10"
     objecttolerance="10"
     inkscape:pageopacity="0.0"
     inkscape:pageshadow="2"
     inkscape:zoom="2.8284271"
     inkscape:cx="534.07596"
     inkscape:cy="403.57025"
     inkscape:document-units="px"
     inkscape:current-layer="layer1"
     showgrid="false"
     inkscape:window-width="1918"
     inkscape:window-height="1038"
     inkscape:window-x="0"
     inkscape:window-y="0" />
  <defs
     id="defs3324">
    <inkscape:perspective
       id="perspective3330"
       inkscape:persp3d-origin="410.04724 : 344.03739 : 1"
       inkscape:vp_z="782.09448 : 519.43109 : 1"
       inkscape:vp_y="6.1230318e-14 : 1000 : 0"
       inkscape:vp_x="38 : 519.43109 : 1"
       sodipodi:type="inkscape:persp3d" />
  </defs>
  <metadata
     id="metadata3327">
    <rdf:RDF>
      <cc:Work
         rdf:about="">
        <dc:format>image/svg+xml</dc:format>
        <dc:type
           rdf:resource="http://purl.org/dc/dcmitype/StillImage" />
      </cc:Work>
    </rdf:RDF>
  </metadata>
  <g
     id="layer1"
     inkscape:groupmode="layer"
     inkscape:label="Layer 1">
    <path
       id="path4270"
       d="M 461.31215,554.06139 C 461.31216,579.68996 461.2809,595.93282 461.2809,621.56139 C 461.2809,647.18996 482.08982,667.99892 507.7184,667.99889 C 533.34697,667.99889 554.15587,647.18994 554.1559,621.56139 C 554.15593,595.93284 554.18715,579.68996 554.18715,554.06139 C 554.18715,528.43282 533.37822,507.65513 507.74965,507.65514 C 482.12108,507.65514 461.31214,528.43282 461.31215,554.06139 z"
       style="opacity:1;fill:none;fill-opacity:1;stroke:#000000;stroke-width:1;stroke-miterlimit:4;stroke-dasharray:none;stroke-opacity:1" />
    <path
       sodipodi:nodetypes="cccc"
       id="path3183"
       d="M 435.57967,495.21197 L 436.63542,495.08869 L 440.39836,493.41433 C 442.53455,491.21291 446.61601,491.14391 443.64638,495.20813"
       style="fill:none;fill-rule:evenodd;stroke:#000000;stroke-width:0.11697467px;stroke-linecap:butt;stroke-linejoin:miter;stroke-opacity:1" />
    <path
       id="path6216"
       d="M 471.34618,554.06139 C 471.34618,554.06139 471.22241,555.11714 471.22241,555.11714 C 471.22241,555.11714 469.54631,558.88008 469.54631,558.88008 C 467.3439,561.01627 467.27301,565.09773 471.33861,562.1281 M 471.34246,562.09773 C 471.34246,562.09773 471.21869,563.15348 471.21869,563.15348 C 471.21869,563.15348 469.54259,566.91642 469.54259,566.91642 C 467.34018,569.05261 467.26929,573.13406 471.33488,570.16444 M 471.33874,570.13407 C 471.33874,570.13407 471.21497,571.18982 471.21497,571.18982 C 471.21497,571.18982 469.53887,574.95275 469.53887,574.95275 C 467.33646,577.08894 467.26557,581.1704 471.33116,578.20077 M 471.33502,578.1704 C 471.33502,578.1704 471.21125,579.22615 471.21125,579.22615 C 471.21125,579.22615 469.53515,582.98909 469.53515,582.98909 C 467.33274,585.12528 467.26185,589.20674 471.32744,586.23711 M 471.3313,586.20674 C 471.3313,586.20674 471.20753,587.26249 471.20753,587.26249 C 471.20753,587.26249 469.53143,591.02543 469.53143,591.02543 C 467.32902,593.16162 467.25813,597.24308 471.32372,594.27345 M 471.32758,594.24308 C 471.32758,594.24308 471.20381,595.29883 471.20381,595.29883 C 471.20381,595.29883 469.52771,599.06177 469.52771,599.06177 C 467.3253,601.19796 467.25441,605.27942 471.32,602.30979 M 471.32386,602.27942 C 471.32386,602.27942 471.20009,603.33517 471.20009,603.33517 C 471.20009,603.33517 469.52399,607.09811 469.52399,607.09811 C 467.32158,609.23429 467.25069,613.31575 471.31628,610.34612 M 471.32014,610.31575 C 471.32014,610.31575 471.19637,611.3715 471.19637,611.3715 C 471.19637,611.3715 469.52027,615.13444 469.52027,615.13444 C 467.31786,617.27063 467.24697,621.35209 471.31256,618.38246 M 471.31642,618.35209 C 471.31642,618.35209 471.19265,619.40784 471.19265,619.40784 C 471.19265,619.40784 469.55803,623.17009 469.55803,623.17009 C 467.41068,625.30537 467.87477,629.35543 471.56421,626.40986 M 471.56422,626.37973 C 471.56422,626.37973 471.57418,627.42693 471.57418,627.42693 C 471.57418,627.42693 470.51294,631.13766 470.51294,631.13766 C 468.79237,633.2188 469.84209,637.14359 473.09443,634.28741 M 473.08997,634.2582 C 473.08997,634.2582 473.25532,635.27362 473.25532,635.27362 C 473.25532,635.27362 472.84785,638.81514 472.84785,638.81514 C 471.43047,640.80201 473.2359,644.43092 475.94587,641.78839 M 475.93586,641.76136 C 475.93586,641.76136 476.29404,642.70083 476.29404,642.70083 C 476.29404,642.70083 476.46554,645.97764 476.46554,645.97764 C 475.41727,647.77561 477.72608,651.09287 480.06912,648.67325 M 480.05536,648.64851 C 480.05536,648.64851 480.55202,649.50271 480.55202,649.50271 C 480.55202,649.50271 481.26692,652.40795 481.26692,652.40795 C 480.46412,654.02235 483.38727,656.80537 485.30243,654.75633 M 485.28429,654.73537 C 485.28429,654.73537 485.92504,655.46384 485.92504,655.46384 C 485.92504,655.46384 487.09896,657.9197 487.09896,657.9197 C 486.57685,659.23968 489.85524,661.57604 491.49985,659.85485 M 491.47895,659.83725 C 491.47895,659.83725 492.23377,660.42267 492.23377,660.42267 C 492.23377,660.42267 493.78142,662.36372 493.78142,662.36372 C 493.43147,663.42884 497.12534,665.0297 498.48421,663.80577 M 498.46038,663.79325 C 498.46038,663.79325 499.2989,664.22838 499.2989,664.22838 C 499.2989,664.22838 501.13945,665.56654 501.13945,665.56654 C 500.96113,666.2517 504.83337,667.31704 506.04142,666.50517 M 506.01605,666.49687 C 506.01605,666.49687 506.91954,666.74139 506.91954,666.74139 C 506.91954,666.74139 508.93536,667.46955 508.93536,667.46955 C 508.85282,667.73915 512.85226,668.0569 513.95574,667.83145 M 513.9293,667.82914 C 513.9293,667.82914 514.85861,667.90929 514.85861,667.90929 C 514.85861,667.90929 516.9446,667.97382 516.9446,667.97382 C 516.87846,667.91975 520.87681,667.57257 521.98029,667.79802 M 521.95385,667.80033 C 521.95385,667.80033 522.88055,667.6945 522.88055,667.6945 C 522.88055,667.6945 524.92393,667.12343 524.92393,667.12343 C 524.82513,666.74749 528.67107,665.57294 529.87911,666.38482 M 529.85374,666.39312 C 529.85374,666.39312 530.74588,666.10449 530.74588,666.10449 C 530.74588,666.10449 532.63265,664.89556 532.63265,664.89556 C 532.41811,664.11153 536.0551,662.4004 537.41396,663.62434 M 537.39013,663.63685 C 537.39013,663.63685 538.21762,663.17885 538.21762,663.17885 C 538.21762,663.17885 539.84466,661.37622 539.84466,661.37622 C 539.49471,660.3111 542.71136,657.87852 544.35596,659.59971 M 544.33506,659.61731 C 544.33506,659.61731 545.07199,659.0054 545.07199,659.0054 C 545.07199,659.0054 546.33342,656.65462 546.33342,656.65462 C 545.7464,655.256 548.59813,652.40355 550.51328,654.45259 M 550.49515,654.47355 C 550.49515,654.47355 551.10437,653.71356 551.10437,653.71356 C 551.10437,653.71356 551.9305,650.90393 551.9305,650.90393 C 551.04906,649.22462 553.34014,645.89497 555.68317,648.31458 M 555.66941,648.33933 C 555.66941,648.33933 556.15619,647.47787 556.15619,647.47787 C 556.15619,647.47787 556.44838,644.27137 556.44838,644.27137 C 555.31208,642.4199 556.89747,638.68445 559.73776,641.3898 M 559.72909,641.41747 C 559.72909,641.41747 560.04093,640.45567 560.04093,640.45567 C 560.04093,640.45567 559.76134,636.96308 559.76134,636.96308 C 558.24508,634.93998 559.27074,631.00786 562.52308,633.86404 M 562.51862,633.89325 C 562.51862,633.89325 562.66976,632.87418 562.66976,632.87418 C 562.66976,632.87418 561.7564,629.19059 561.7564,629.19059 C 559.93093,627.08797 560.13287,623.01078 563.97163,625.97152 M 563.97317,626.0018 C 563.97317,626.0018 563.93004,624.94921 563.93004,624.94921 C 563.93004,624.94921 562.39246,621.19029 562.39246,621.19029 C 560.19203,619.0541 560.12492,614.97264 564.18777,617.94227 M 564.19159,617.97264 C 564.19159,617.97264 564.0688,616.91689 564.0688,616.91689 C 564.0688,616.91689 562.39618,613.15395 562.39618,613.15395 C 560.19575,611.01776 560.12864,606.9363 564.19149,609.90593 M 564.19531,609.9363 C 564.19531,609.9363 564.07252,608.88055 564.07252,608.88055 C 564.07252,608.88055 562.3999,605.11761 562.3999,605.11761 C 560.19947,602.98143 560.13236,598.89997 564.19521,601.8696 M 564.19903,601.89997 C 564.19903,601.89997 564.07624,600.84422 564.07624,600.84422 C 564.07624,600.84422 562.40362,597.08128 562.40362,597.08128 C 560.20319,594.94509 560.13608,590.86363 564.19893,593.83326 M 564.20275,593.86363 C 564.20275,593.86363 564.07996,592.80788 564.07996,592.80788 C 564.07996,592.80788 562.40734,589.04494 562.40734,589.04494 C 560.20691,586.90875 560.1398,582.82729 564.20265,585.79692 M 564.20647,585.82729 C 564.20647,585.82729 564.08368,584.77154 564.08368,584.77154 C 564.08368,584.77154 562.41106,581.0086 562.41106,581.0086 C 560.21063,578.87241 560.14352,574.79095 564.20637,577.76058 M 564.21019,577.79095 C 564.21019,577.79095 564.0874,576.7352 564.0874,576.7352 C 564.0874,576.7352 562.41478,572.97226 562.41478,572.97226 C 560.21435,570.83607 560.14724,566.75462 564.21009,569.72424 M 564.21391,569.75461 C 564.21391,569.75461 564.09112,568.69887 564.09112,568.69887 C 564.09112,568.69887 562.41851,564.93593 562.41851,564.93593 C 560.21807,562.79974 560.15096,558.71828 564.21381,561.68791 M 564.21764,561.71828 C 564.21764,561.71828 564.09484,560.66253 564.09484,560.66253 C 564.09484,560.66253 562.42223,556.89959 562.42223,556.89959 C 560.22179,554.7634 560.06757,550.68338 564.20697,553.65174 M 564.21157,553.6821 C 564.21157,553.6821 564.06157,552.6268 564.06157,552.6268 C 564.06157,552.6268 562.12736,548.87496 562.12736,548.87496 C 559.6563,546.75608 558.85687,542.74062 563.44384,545.66356 M 563.45302,545.69346 C 563.45302,545.69346 563.14116,544.65487 563.14116,544.65487 C 563.14116,544.65487 560.54635,541.0078 560.54635,541.0078 C 557.7607,538.95329 556.17103,535.16188 561.32565,537.92376 M 561.34064,537.952 C 561.34064,537.952 560.82971,536.97011 560.82971,536.97011 C 560.82971,536.97011 557.63066,533.53217 557.63066,533.53217 C 554.45459,531.63152 552.33467,528.10272 557.88031,530.67611 M 557.8993,530.70243 C 557.8993,530.70243 557.23932,529.79365 557.23932,529.79365 C 557.23932,529.79365 553.46224,526.67477 553.46224,526.67477 C 550.02206,524.93468 547.23602,521.88226 553.2455,524.12569 M 553.26923,524.14863 C 553.26923,524.14863 552.45438,523.35106 552.45438,523.35106 C 552.45438,523.35106 548.17556,520.63797 548.17556,520.63797 C 544.42752,519.16474 541.24731,516.52197 547.55675,518.46516 M 547.58355,518.48504 C 547.58355,518.48504 546.64079,517.81999 546.64079,517.81999 C 546.64079,517.81999 541.94318,515.58188 541.94318,515.58188 C 538.0006,514.34463 534.33837,512.39203 540.97715,513.87142 M 541.00732,513.88655 C 541.00732,513.88655 539.96874,513.3606 539.96874,513.3606 C 539.96874,513.3606 534.92238,511.6945 534.92238,511.6945 C 530.77447,510.81497 526.83535,509.51066 533.71236,510.46203 M 533.74494,510.47185 C 533.74494,510.47185 532.6217,510.13353 532.6217,510.13353 C 532.6217,510.13353 527.3427,509.06017 527.3427,509.06017 C 523.06,508.57994 518.97269,507.86657 525.96001,508.38848 M 525.99374,508.39381 C 525.99374,508.39381 524.83126,508.20827 524.83126,508.20827 C 524.83126,508.20827 519.41845,507.79493 519.41845,507.79493 C 515.08721,507.63299 510.93571,507.58485 517.96829,507.65991 M 518.00249,507.66067 C 518.00249,507.66067 516.82391,507.67629 516.82391,507.67629 C 516.82391,507.67629 511.39387,507.88312 511.39387,507.88312 C 507.06263,508.04507 502.98352,508.84412 509.97083,508.32221 M 510.00456,508.31687 C 510.00456,508.31687 508.84208,508.50242 508.84208,508.50242 C 508.84208,508.50242 503.50738,509.36579 503.50738,509.36579 C 499.25118,509.94909 495.32745,511.2926 502.20447,510.34124 M 502.23707,510.33151 C 502.23707,510.33151 501.12429,510.6984 501.12429,510.6984 C 501.12429,510.6984 495.98976,512.17344 495.98976,512.17344 C 491.84185,513.05297 488.27065,515.16298 494.90943,513.68358 M 494.9396,513.66845 C 494.9396,513.66845 493.90102,514.1944 493.90102,514.1944 C 493.90102,514.1944 489.08076,516.2556 489.08076,516.2556 C 485.13818,517.49285 481.88995,520.05415 488.28959,518.22034 M 488.31731,518.20159 C 488.31731,518.20159 487.39333,518.8894 487.39333,518.8894 C 487.39333,518.8894 482.96373,521.44962 482.96373,521.44962 C 479.28765,522.99487 476.5517,526.08427 482.56117,523.84083 M 482.58491,523.81789 C 482.58491,523.81789 481.77359,524.61838 481.77359,524.61838 C 481.77359,524.61838 477.83529,527.62232 477.83529,527.62232 C 474.39511,529.36241 472.32183,532.92276 477.86747,530.34936 M 477.88646,530.32304 C 477.88646,530.32304 477.23651,531.23793 477.23651,531.23793 C 477.23651,531.23793 473.84151,534.58201 473.84151,534.58201 C 470.75925,536.52791 469.21787,540.33495 474.37248,537.57307 M 474.38747,537.54483 C 474.38747,537.54483 473.8975,538.5344 473.8975,538.5344 C 473.8975,538.5344 471.1076,542.12657 471.1076,542.12657 C 468.32195,544.18109 467.59525,548.21537 472.18222,545.29243 M 472.1914,545.26254 C 472.1914,545.26254 471.88228,546.30169 471.88228,546.30169 C 471.88228,546.30169 469.73399,550.03243 469.73399,550.03243 C 467.37037,552.16223 467.22287,556.2432 471.36226,553.27484"
       style="fill:none;fill-rule:evenodd;stroke:#000000;stroke-width:1;stroke-linecap:round;stroke-linejoin:round;stroke-opacity:1;stroke-miterlimit:4;stroke-dasharray:none" />
    <g
       id="g5313"
       style="opacity:1;fill:none;fill-opacity:1;fill-rule:evenodd;stroke:#000000;stroke-width:1;stroke-miterlimit:4;stroke-dasharray:none;stroke-opacity:1"
       transform="translate(-6,-1.75)">
      <path
         d="M 481.25,609.75682 L 616,633.11218 L 650.66882,612.20143"
         style="fill:none;fill-rule:evenodd;stroke:#000000;stroke-width:1;stroke-linecap:butt;stroke-linejoin:round;stroke-opacity:1;stroke-miterlimit:4;stroke-dasharray:none"
         id="path5329"
         sodipodi:nodetypes="ccc" />
      <path
         d="M 531.86879,584.02607 L 650.66882,596.31695 L 650.66882,612.20143"
         style="fill:none;fill-rule:evenodd;stroke:#000000;stroke-width:1;stroke-linecap:butt;stroke-linejoin:round;stroke-opacity:1;stroke-miterlimit:4;stroke-dasharray:none"
         id="path5333"
         sodipodi:nodetypes="cccc" />
      <path
         d="M 481.25,594.3622 L 616,613.03753 L 650.66882,596.31695 L 531.86879,584.02607 L 481.25,594.3622 z"
         style="fill:none;fill-rule:evenodd;stroke:#000000;stroke-width:1;stroke-linecap:butt;stroke-linejoin:round;stroke-opacity:1;stroke-miterlimit:4;stroke-dasharray:none;fill-opacity:1"
         id="path5335" />
      <path
         d="M 616,613.03753 L 616,633.11218 L 650.66882,612.20143 L 650.66882,596.31695 L 616,613.03753 z"
         style="fill:none;fill-rule:evenodd;stroke:#000000;stroke-width:1;stroke-linecap:butt;stroke-linejoin:round;stroke-opacity:1;stroke-miterlimit:4;stroke-dasharray:none"
         id="path5337" />
      <path
         d="M 481.25,594.3622 L 616,613.03753 L 616,633.11218 L 481.25,609.75682 L 481.25,594.3622 z"
         style="fill:none;fill-rule:evenodd;stroke:#000000;stroke-width:1;stroke-linecap:butt;stroke-linejoin:round;stroke-opacity:1;stroke-miterlimit:4;stroke-dasharray:none"
         id="path5339" />
    </g>
    <path
       style="fill:none;fill-rule:evenodd;stroke:#000000;stroke-width:1;stroke-linecap:butt;stroke-linejoin:miter;stroke-opacity:1;stroke-miterlimit:4;stroke-dasharray:none"
       d="M 494.25,588.61218 C 495.46301,588.76344 500.0575,590.02368 503,590.61218 C 505.87386,591.18696 508.57026,591.36218 511.5,591.36218 C 514.26996,591.36218 516.95901,590.86218 519.75,590.86218 C 522.25,590.86218 524.75,590.86218 527.25,590.86218 C 530.08333,590.86218 532.91666,590.86218 535.75,590.86218 C 538.66121,590.86218 541,591.66744 541,594.86218 C 541,597.35032 546.19966,597.36218 547.75,597.36218 C 550.44549,597.36218 552.72259,596.49404 555.25,595.86218 C 557.91251,595.19656 560.36039,597.32728 562.5,597.86218 C 563.04232,597.99777 563.5,598.36218 564,598.61218"
       id="path5349" />
  </g>
</svg>
