<?xml version="1.0" encoding="UTF-8" standalone="no"?>
<!-- Created with Inkscape (http://www.inkscape.org/) -->
<svg
   xmlns:dc="http://purl.org/dc/elements/1.1/"
   xmlns:cc="http://creativecommons.org/ns#"
   xmlns:rdf="http://www.w3.org/1999/02/22-rdf-syntax-ns#"
   xmlns:svg="http://www.w3.org/2000/svg"
   xmlns="http://www.w3.org/2000/svg"
   xmlns:sodipodi="http://sodipodi.sourceforge.net/DTD/sodipodi-0.dtd"
   xmlns:inkscape="http://www.inkscape.org/namespaces/inkscape"
   width="744.09448819"
   height="1052.3622047"
   id="svg5394"
   sodipodi:version="0.32"
   inkscape:version="0.46"
   sodipodi:docname="broaching.svg"
   inkscape:output_extension="org.inkscape.output.svg.inkscape">
  <defs
     id="defs5396">
    <inkscape:perspective
       sodipodi:type="inkscape:persp3d"
       inkscape:vp_x="0 : 526.18109 : 1"
       inkscape:vp_y="0 : 1000 : 0"
       inkscape:vp_z="744.09448 : 526.18109 : 1"
       inkscape:persp3d-origin="372.04724 : 350.78739 : 1"
       id="perspective5402" />
  </defs>
  <sodipodi:namedview
     id="base"
     pagecolor="#ffffff"
     bordercolor="#666666"
     borderopacity="1.0"
     gridtolerance="10000"
     guidetolerance="10"
     objecttolerance="10"
     inkscape:pageopacity="0.0"
     inkscape:pageshadow="2"
     inkscape:zoom="1.4"
     inkscape:cx="326.05661"
     inkscape:cy="280.02733"
     inkscape:document-units="px"
     inkscape:current-layer="layer1"
     showgrid="false"
     inkscape:window-width="1918"
     inkscape:window-height="1038"
     inkscape:window-x="0"
     inkscape:window-y="0" />
  <metadata
     id="metadata5399">
    <rdf:RDF>
      <cc:Work
         rdf:about="">
        <dc:format>image/svg+xml</dc:format>
        <dc:type
           rdf:resource="http://purl.org/dc/dcmitype/StillImage" />
      </cc:Work>
    </rdf:RDF>
  </metadata>
  <g
     inkscape:label="Layer 1"
     inkscape:groupmode="layer"
     id="layer1">
    <path
       style="fill:none;fill-rule:evenodd;stroke:#000000;stroke-width:1;stroke-linecap:butt;stroke-linejoin:miter;stroke-miterlimit:4;stroke-dasharray:none;stroke-opacity:1"
       d="M 53.53125 722.375 C 53.589086 725.60569 55.891641 729.67573 54.03125 732.15625 C 48.365994 739.70989 58.778655 742.0651 58.59375 742.25 C 53.986178 746.85756 47.795768 746.10827 53.53125 751.84375 C 56.179567 754.49207 60.234335 761.29691 56.0625 765.46875 C 48.698524 772.83271 52.390482 769.24971 56.0625 776.59375 C 59.264071 782.99691 54.03125 785.56647 54.03125 791.75 C 54.031252 796.74124 61.145969 801.66613 60.09375 805.875 C 58.670389 811.56846 51.194331 811.22267 50 816 C 48.066292 823.7348 52.346721 828.53274 58.59375 831.65625 C 66.857612 835.78817 54.03125 837.18981 54.03125 843.25 C 54.031252 848.9437 53.03125 854.57257 53.03125 859.4375 L 55.5625 866 L 73.3125 867.21875 C 57.957203 852.25076 88.057166 843.07621 126.625 858.75 L 152.53125 864.53125 C 137.05836 844.82658 166.15091 838.5735 204.71875 859.53125 L 230.71875 861.90625 C 215.33515 837.2444 246.96341 829.92699 285.53125 856.1875 L 310.8125 858.90625 C 294.71463 836.44755 324.80716 822.57327 363.375 846.1875 L 389.03125 849.03125 C 373.29051 819.54446 403.36966 801.00563 441.9375 832.59375 L 467.96875 836.25 C 452.58514 801.63668 482.68216 779.95925 521.25 816.875 L 547.25 820.84375 C 531.8664 785.92832 561.96341 764.2405 600.53125 801.15625 L 626.46875 805.4375 C 626.72767 795.70129 621.4893 792.06228 614.28125 786.65625 C 607.14347 781.30292 608.88088 775.61912 615 769.5 C 622.30882 762.19115 611.41087 760.19212 607.15625 755.9375 C 601.30335 750.08464 604.43628 743.63228 605.71875 735.9375 C 606.54042 731.00743 603.40245 726.06538 603.21875 722.375 L 53.53125 722.375 z "
       id="path5972" />
    <path
       style="fill:none;fill-rule:evenodd;stroke:#000000;stroke-width:1px;stroke-linecap:butt;stroke-linejoin:miter;stroke-opacity:1"
       d="M 396.98995,782.65146 L 425.7793,772.04485 M 139.90613,773.055 L 426.78945,772.04485 L 396.48487,760.93317"
       id="path5974"
       sodipodi:nodetypes="ccccc" />
    <path
       style="opacity:1;fill:#ececec;fill-opacity:1;fill-rule:evenodd;stroke:#000000;stroke-width:1;stroke-linecap:round;stroke-linejoin:round;stroke-miterlimit:4;stroke-opacity:1"
       d="M 560.34375,785.40625 C 558.61766,785.40625 556.64618,785.33843 555,785.75 C 553.28046,786.17988 551.36757,786.69492 550,788.0625 C 548.51055,789.55195 547.32442,790.41364 546.4375,792.1875 C 545.66275,793.737 544.60528,795.14151 544.09375,797.1875 C 543.67863,798.84799 543.03126,800.80753 543.03125,802.53125 C 542.86012,809.16193 544.89298,815.36256 548.03125,821.9375 L 481.15625,821.75 C 480.88133,821.41729 480.65811,821.06713 480.53125,820.75 C 480.28784,820.1415 478.96143,816.95439 480.34375,816.125 C 481.69338,815.31523 484.1621,812.05617 486.0625,812.53125 C 487.92916,812.99794 495.3319,814.88041 496.78125,815.75 C 498.30973,816.66709 499.44045,817.98361 501.25,817.53125 C 503.07394,815.43977 502.43145,811.86123 504.65625,809.84375 C 503.81938,809.00688 502.05902,806.08509 500.71875,805.75 C 498.93968,805.30524 492.13081,802.11081 490.1875,801.625 C 488.41659,801.1823 486.46956,800.48228 484.625,800.21875 C 482.69264,799.94271 479.84015,800.56248 477.875,800.5625 C 474.43337,801.72082 471.23541,803.62842 468.40625,806.125 C 467.20931,807.32194 465.99735,809.07315 465.53125,810.9375 C 463.54823,814.89159 464.29356,818.16359 464.03125,821.6875 C 464.69285,826.86609 466.53807,831.8454 469.21875,836.6875 L 397.375,836.6875 C 397.26345,836.54303 397.15431,836.35009 397.0625,836.28125 C 395.12115,834.82524 396.52253,835.85394 396.34375,834.78125 C 396.18878,833.85143 395.46544,833.12009 395.96875,832.28125 C 396.4703,831.44533 397.49958,831.99997 398.40625,832 C 399.27507,832 400.27901,831.95426 401.0625,831.5625 C 401.99791,831.0948 401.96453,830.05169 402.40625,829.875 C 403.38169,829.48482 403.85899,830.20694 404.65625,830.40625 C 405.44445,830.6033 406.45143,830.8715 407.3125,830.65625 C 408.09831,830.4598 409.23626,830.21189 409.8125,830.5 C 410.23661,830.71206 411.35001,831.56873 411.78125,832 C 412.3153,832.53406 413.47782,833.24739 414.1875,833.53125 C 414.93278,833.82936 415.70934,834.49997 416.6875,834.5 C 417.55852,834.5 418.71964,834.37279 419.09375,833.4375 C 419.38407,832.71172 420.11612,832.19173 420.34375,831.28125 C 420.55114,830.4517 420.98667,829.7053 421.59375,829.25 C 422.23109,828.772 423.27672,828.058 422.3125,827.09375 C 421.59809,826.37935 420.82993,825.97745 420,825.5625 C 419.16514,825.14507 418.33999,824.68598 417.40625,824.3125 C 416.64925,824.0097 415.92522,823.23131 415,823 C 414.09173,822.77293 413.21879,822.32035 412.3125,822.09375 C 411.42922,821.87293 410.53603,821.78246 409.65625,821.5625 C 408.78002,821.34344 407.84222,821.34337 406.96875,821.125 C 406.16378,820.92376 405.11277,820.74997 404.28125,820.75 C 403.44825,820.75 402.42766,820.44775 401.59375,820.65625 C 400.76804,820.86268 399.80237,820.84377 398.9375,820.84375 C 398.00485,820.84375 397.12854,820.96785 396.25,821.1875 C 395.37576,821.40606 394.43656,821.43774 393.5625,821.65625 C 392.63087,821.88915 391.78984,822.37073 390.90625,822.8125 C 389.99073,823.27026 389.3432,823.71929 388.65625,824.40625 C 388.31828,824.74422 387.10906,825.8137 386.96875,826.375 C 386.76195,827.20218 386.04528,828.03771 385.8125,828.96875 C 385.59061,829.85633 385.50637,830.75583 385.28125,831.65625 C 385.06019,832.54049 384.94355,833.41327 384.71875,834.3125 C 384.54595,835.00371 384.38277,836.28098 384.5625,837 C 384.77867,837.86469 385.06798,838.74065 385.28125,839.59375 C 385.53209,840.59713 386.15335,841.30674 386.59375,842.1875 C 386.63973,842.27946 386.67951,842.34956 386.71875,842.4375 C 387.04634,844.77728 387.59517,846.94455 389.4375,848.6875 L 319.4375,849 C 318.83836,848.30243 318.7748,847.4726 319.71875,846.90625 C 320.43793,846.47475 321.49563,846.34595 322.3125,845.9375 C 322.86812,845.65969 323.97987,845.5 324.8125,845.5 C 325.76077,845.5 326.59536,845.52381 327.5,845.75 C 328.39107,845.97277 329.29952,846.15297 330.1875,846.375 C 330.61625,846.48219 332.47396,847.74479 332.84375,847.375 C 333.38066,846.8381 333.66111,845.65138 334.375,844.9375 C 335.02698,844.28552 335.38276,843.34961 336.53125,843.0625 C 337.78315,842.74952 338.47835,843.52624 338.3125,842.53125 C 338.1323,841.45005 337.53409,841.09848 337.0625,840.3125 C 336.76644,839.81907 335.3549,838.84653 334.71875,838.6875 C 333.72147,838.43818 332.91493,838.07958 331.875,837.90625 C 331.69643,837.87648 331.52232,837.84228 331.34375,837.8125 C 330.08709,837.60306 328.83503,837.61481 327.59375,837.4375 C 326.30025,837.25271 324.78076,836.90623 323.46875,836.90625 C 322.55371,836.90625 321.71393,836.81249 320.8125,836.8125 C 319.91454,836.8125 319.04461,836.7935 318.21875,837 C 317.33247,837.22157 316.43026,837.30648 315.53125,837.53125 C 314.65006,837.75155 313.58276,838.07074 312.84375,838.625 C 312.05961,839.21311 311.54138,839.77114 310.8125,840.5 C 310.14764,841.16486 309.72656,841.81247 309.1875,842.53125 C 308.56069,843.367 308.47687,844.23374 308.03125,845.125 C 307.62658,845.93433 307.62626,846.90375 307.21875,847.71875 C 307.07959,847.99707 307.06266,848.55055 307.0625,849.0625 L 306.84375,849.0625 C 307.58598,853.05922 307.58865,856.25249 312.65625,858.90625 L 234.34375,859.09375 C 233.52292,858.8524 232.97885,858.47886 232.3125,857.8125 C 231.7174,857.2174 232.04001,856.12117 232.21875,855.40625 C 232.41918,854.60455 233.57929,853.96877 234.46875,853.96875 C 235.23186,853.96875 236.19875,854.02124 236.96875,854.40625 C 237.85174,854.84775 237.86594,855.83064 237.40625,856.75 C 237.16083,857.24085 239.03126,856.92375 239.03125,856.375 C 239.03125,855.46861 239.13297,854.48202 238.65625,853.6875 C 238.1132,852.7824 237.67114,852.55061 236.59375,852.28125 C 235.86075,852.098 234.71504,851.77664 233.9375,851.90625 C 233.02137,852.05894 232.10627,851.94687 231.25,852.375 C 230.26956,852.86522 230.04328,853.73795 229.375,854.40625 C 228.79016,854.99109 228.53539,856.14153 228.75,857 C 228.85393,857.41572 229.13965,858.50155 229.25,859.09375 L 229.0625,859.09375 L 229.3125,859.375 C 229.31292,859.38342 229.31242,859.39874 229.3125,859.40625 C 229.31306,859.45988 229.30027,859.5 229.28125,859.5 L 229.40625,859.5 L 231.5625,861.9375 L 160.53125,862.03125 C 159.81341,861.9283 159.12755,861.83658 158.40625,861.65625 C 157.61143,861.45754 156.46854,861.21851 155.90625,860.65625 C 155.38762,860.13762 154.13808,859.29944 155.09375,858.34375 C 155.61687,857.82063 156.43354,856.90623 157.3125,856.90625 C 157.85959,856.90625 159.71874,857.16729 159.71875,858 C 159.71875,859.26806 157.58279,859.42655 157.9375,859.78125 C 158.5859,860.42965 159.63703,860.44233 160.53125,860.21875 C 161.1734,860.05822 162.65739,859.62039 162.84375,858.875 C 163.00746,858.22017 163.85942,857.00785 162.78125,856.46875 C 161.96,856.05813 160.99751,855.25717 160.09375,855.03125 C 159.20535,854.80916 158.34696,854.40623 157.40625,854.40625 C 156.51309,854.40625 155.58021,854.37841 154.71875,854.59375 C 153.80761,854.82154 152.9312,854.87817 152.0625,855.3125 C 151.22244,855.73253 150.73054,856.38269 150.28125,857.28125 C 149.87006,858.10361 149.7759,859.0411 150,859.9375 C 150.19746,860.72734 150.7012,861.58745 150.84375,862.03125 C 150.859,862.07873 150.90052,862.15043 150.90625,862.1875 L 150.96875,862.1875 L 153.28125,864.90625 L 75.625,864.5625 L 75,864.40625 C 74.699936,864.23006 74.125,863.80162 74.125,863.25 C 74.124995,862.81286 73.828134,862.24996 73.9375,861.8125 C 74.060307,861.32125 74.14731,860.94644 74.46875,860.625 C 74.824796,860.26897 75.152578,860.12684 75.59375,859.90625 C 75.956235,859.72503 76.533736,859.81313 76.90625,859.90625 C 77.40326,860.03053 78.016997,860.23575 78.34375,860.5625 C 78.635589,860.85433 78.739512,861.32321 78.625,861.78125 C 78.533154,862.14865 77.71795,862.49407 77.46875,862.59375 C 76.901958,862.82047 76.868419,861.62007 76.78125,861.96875 C 76.675508,862.39173 76.884029,862.97417 77.1875,863.15625 C 77.674414,863.44838 78.191356,863.4375 78.75,863.4375 C 79.230952,863.43752 79.785448,863.3083 80.09375,863 C 80.504884,862.58887 80.750172,862.59306 80.90625,861.96875 C 81.02549,861.49179 81.0625,861.13018 81.0625,860.625 C 81.062503,860.08381 80.84844,859.75938 80.625,859.3125 C 80.377493,858.81747 79.588941,858.63558 79.09375,858.4375 C 78.385905,858.15438 77.905764,857.854 77.21875,857.625 C 77.129467,857.59521 77.058036,857.56102 76.96875,857.53125 C 76.409049,857.34467 75.463701,857.57601 74.90625,857.6875 C 74.77172,857.71441 74.633928,857.72024 74.5,857.75 C 74.447626,857.76163 74.419643,857.81399 74.375,857.84375 C 73.916661,858.14929 72.93982,858.18634 72.375,858.46875 C 71.796645,858.75791 71.367824,859.16343 70.9375,859.59375 C 70.569883,859.96139 70.399758,860.49472 70.28125,860.96875 C 70.167292,861.42455 70.125,861.82412 70.125,862.3125 C 70.125003,862.76853 70.261888,863.4846 70.53125,863.84375 L 74.21875,867.5625 L 65.15625,868.09375 L 65.15625,953.71875 C 65.15625,955.20268 66.359819,956.40623 67.84375,956.40625 L 639.28125,956.40625 C 640.76517,956.40625 641.93749,955.20268 641.9375,953.71875 L 641.9375,804.375 L 627.3125,804.375 L 627.3125,805.875 L 556.34375,806.09375 C 556.06236,805.12455 555.92228,804.01603 555.34375,803.4375 C 553.57851,801.67225 554.63333,800.42085 555.53125,798.625 C 555.94137,797.80476 557.63556,796.01048 559.46875,796.46875 C 561.21489,796.90529 563.19226,796.78245 564.8125,797.1875 C 566.26029,797.54945 568.92668,797.61957 570.1875,798.25 C 571.32244,798.81747 573.59296,799.4996 574.65625,800.03125 C 575.83804,800.62215 578.20936,801.11562 579.46875,802.375 C 581.20342,804.10967 582.03825,802.0658 582.5,800.21875 C 583.06501,797.95871 585.69215,796.44213 585.53125,796.28125 C 584.19696,794.94697 582.87467,794.28099 581.25,793.0625 C 579.87314,792.02985 577.65467,790.75742 576.25,790.40625 C 574.79369,790.04217 572.54238,788.64619 571.0625,787.90625 C 569.3662,787.0581 567.54543,786.7379 565.71875,786.28125 C 564.13414,785.8851 561.99925,785.40626 560.34375,785.40625 z"
       id="path6037"
       sodipodi:nodetypes="csssscccssssccsssccccccsssssssssssssssssssssssssssssssssssscccsssssssssssssssssssssssccccsssssssssssscccsccccsssssssssssssssscccccssssssssssssssssssssssssscccccccccccsssssssssssssc" />
  </g>
</svg>
