<?xml version="1.0" encoding="UTF-8" standalone="no"?>
<!-- Created with Inkscape (http://www.inkscape.org/) -->
<svg
   xmlns:dc="http://purl.org/dc/elements/1.1/"
   xmlns:cc="http://creativecommons.org/ns#"
   xmlns:rdf="http://www.w3.org/1999/02/22-rdf-syntax-ns#"
   xmlns:svg="http://www.w3.org/2000/svg"
   xmlns="http://www.w3.org/2000/svg"
   xmlns:sodipodi="http://sodipodi.sourceforge.net/DTD/sodipodi-0.dtd"
   xmlns:inkscape="http://www.inkscape.org/namespaces/inkscape"
   width="744.09448819"
   height="1052.3622047"
   id="svg5394"
   sodipodi:version="0.32"
   inkscape:version="0.46"
   sodipodi:docname="broaching.svg"
   inkscape:output_extension="org.inkscape.output.svg.inkscape">
  <defs
     id="defs5396">
    <inkscape:perspective
       sodipodi:type="inkscape:persp3d"
       inkscape:vp_x="0 : 526.18109 : 1"
       inkscape:vp_y="0 : 1000 : 0"
       inkscape:vp_z="744.09448 : 526.18109 : 1"
       inkscape:persp3d-origin="372.04724 : 350.78739 : 1"
       id="perspective5402" />
  </defs>
  <sodipodi:namedview
     id="base"
     pagecolor="#ffffff"
     bordercolor="#666666"
     borderopacity="1.0"
     gridtolerance="10000"
     guidetolerance="10"
     objecttolerance="10"
     inkscape:pageopacity="0.0"
     inkscape:pageshadow="2"
     inkscape:zoom="1.4"
     inkscape:cx="176.86441"
     inkscape:cy="204.56319"
     inkscape:document-units="px"
     inkscape:current-layer="layer1"
     showgrid="false"
     inkscape:window-width="1918"
     inkscape:window-height="1038"
     inkscape:window-x="0"
     inkscape:window-y="0" />
  <metadata
     id="metadata5399">
    <rdf:RDF>
      <cc:Work
         rdf:about="">
        <dc:format>image/svg+xml</dc:format>
        <dc:type
           rdf:resource="http://purl.org/dc/dcmitype/StillImage" />
      </cc:Work>
    </rdf:RDF>
  </metadata>
  <g
     inkscape:label="Layer 1"
     inkscape:groupmode="layer"
     id="layer1">
    <path
       style="fill:#ffffff;fill-rule:evenodd;stroke:#000000;stroke-width:1;stroke-linecap:butt;stroke-linejoin:miter;stroke-miterlimit:4;stroke-dasharray:none;stroke-opacity:1"
       d="M 297.70968,719.46678 C 299.0356,719.49052 300.70599,720.43552 301.72403,719.67199 C 304.82414,717.3469 305.79075,721.62039 305.86663,721.5445 C 307.75764,719.65349 307.45012,717.11287 309.80403,719.46678 C 310.89094,720.55369 313.68373,722.21782 315.39591,720.50564 C 318.41817,717.48337 316.94766,718.9986 319.96175,720.50564 C 322.58969,721.81961 323.64427,719.67199 326.18207,719.67199 C 328.23053,719.67199 330.25177,722.59196 331.97915,722.16012 C 334.31581,721.57595 334.1739,718.50768 336.13457,718.01751 C 339.30903,717.2239 341.27817,718.98064 342.5601,721.5445 C 344.25589,724.93609 344.83114,719.67199 347.31832,719.67199 C 349.65509,719.67199 351.96525,719.26158 353.96188,719.26158 L 356.65521,720.30044 L 357.1554,727.58526 C 351.01235,721.28325 347.247,733.63666 353.67972,749.46539 L 356.05242,760.09765 C 347.96537,753.74738 345.39903,765.68733 354.00035,781.51606 L 354.97508,792.18679 C 344.85355,785.87317 341.85039,798.85381 352.62804,814.68254 L 353.74385,825.05829 C 344.52651,818.45152 338.83233,830.80188 348.52391,846.63061 L 349.69102,857.16026 C 337.58927,850.70006 329.98069,863.04493 342.94486,878.87366 L 344.44543,889.55722 C 330.23968,883.24359 321.34299,895.59579 336.49369,911.42452 L 338.12251,922.09525 C 323.79277,915.78163 314.89182,928.13382 330.04251,943.96256 L 331.79959,954.60764 C 327.80372,954.7139 326.31023,952.56401 324.09153,949.60573 C 321.89445,946.6763 319.56175,947.38935 317.05038,949.90072 C 314.05074,952.90035 313.23031,948.42769 311.48416,946.68154 C 309.08207,944.27944 306.43394,945.56523 303.2759,946.09157 C 301.25254,946.4288 299.22426,945.14093 297.70968,945.06554 L 297.70968,719.46678 z"
       id="path5972"
       inkscape:export-filename="/home/fenn/code/skdb/icons/broaching.png"
       inkscape:export-xdpi="90"
       inkscape:export-ydpi="90" />
    <path
       style="fill:none;fill-rule:evenodd;stroke:#000000;stroke-width:1;stroke-linecap:butt;stroke-linejoin:miter;stroke-opacity:1;stroke-miterlimit:4;stroke-dasharray:none"
       d="M 322.44791,860.42661 L 318.09482,872.24213 M 318.5094,754.91614 L 318.09482,872.65671 L 313.53445,860.21932"
       id="path5974"
       sodipodi:nodetypes="ccccc"
       inkscape:export-filename="/home/fenn/code/skdb/icons/broaching.png"
       inkscape:export-xdpi="90"
       inkscape:export-ydpi="90" />
    <path
       style="fill:#ececec;fill-opacity:1;fill-rule:evenodd;stroke:#000000;stroke-width:1;stroke-linecap:round;stroke-linejoin:round;stroke-miterlimit:4;stroke-opacity:1;stroke-dasharray:none"
       d="M 323.57851,927.4691 C 323.57851,926.76069 323.55068,925.95157 323.71959,925.27595 C 323.89602,924.57023 324.1074,923.78516 324.66867,923.22389 C 325.27996,922.6126 325.63361,922.1258 326.36162,921.76179 C 326.99756,921.44383 327.57398,921.00983 328.41368,920.79989 C 329.09517,920.62952 329.89939,920.36383 330.60683,920.36382 C 333.32814,920.29359 335.87296,921.1279 338.5714,922.41589 L 338.49445,894.96954 C 338.3579,894.85671 338.21419,894.76509 338.08403,894.71303 C 337.8343,894.61313 336.52627,894.06875 336.18588,894.63608 C 335.85354,895.18998 334.51598,896.20317 334.71096,896.98312 C 334.90249,897.74922 335.67508,900.7874 336.03197,901.38224 C 336.40836,902.00954 336.94867,902.4736 336.76302,903.21627 C 335.90465,903.96484 334.43597,903.70115 333.60797,904.61424 C 333.26451,904.27077 332.06537,903.5483 331.92784,902.99824 C 331.74531,902.26808 330.43427,899.47364 330.23489,898.67608 C 330.0532,897.94927 329.7659,897.15019 329.65775,896.39316 C 329.54446,895.60009 329.79882,894.42939 329.79883,893.62287 C 330.27422,892.21038 331.05712,890.8979 332.08175,889.73677 C 332.57299,889.24553 333.29171,888.74813 334.05686,888.55684 C 335.67967,887.74298 337.02254,888.04887 338.4688,887.94122 C 340.59416,888.21275 342.63773,888.97005 344.62499,890.07023 L 344.62499,860.58464 C 344.5657,860.53886 344.48651,860.49407 344.45826,860.45639 C 343.86069,859.65963 344.28288,860.23478 343.84264,860.1614 C 343.46103,860.0978 343.16088,859.80093 342.81661,860.0075 C 342.47353,860.21334 342.70117,860.63577 342.70118,861.00788 C 342.70118,861.36446 342.68241,861.77649 342.52162,862.09804 C 342.32967,862.48194 341.90157,862.46824 341.82905,862.64953 C 341.66892,863.04986 341.96528,863.24575 342.04708,863.57296 C 342.12795,863.89645 342.23803,864.30973 342.14969,864.66312 C 342.06906,864.98563 341.96732,865.45266 342.08556,865.68915 C 342.17259,865.86321 342.52418,866.32017 342.70118,866.49715 C 342.92036,866.71633 343.21312,867.19345 343.32962,867.48471 C 343.45197,867.79058 343.7272,868.10929 343.72721,868.51074 C 343.72721,868.86822 343.675,869.34476 343.29115,869.49829 C 342.99328,869.61745 342.77987,869.91789 342.40619,870.01131 C 342.06574,870.09643 341.7594,870.27517 341.57254,870.52433 C 341.37637,870.7859 341.08333,871.21504 340.68759,870.81931 C 340.39439,870.52611 340.22945,870.21085 340.05915,869.87023 C 339.88783,869.52759 339.69941,869.18894 339.54613,868.80572 C 339.42186,868.49504 339.1024,868.19789 339.00746,867.81817 C 338.91427,867.4454 338.72853,867.08714 338.63553,866.71518 C 338.5449,866.35267 338.50777,865.9861 338.4175,865.62502 C 338.32759,865.26541 338.32756,864.88052 338.23794,864.52204 C 338.15535,864.19167 338.08402,863.76032 338.08403,863.41906 C 338.08403,863.07718 337.95999,862.65832 338.04556,862.31607 C 338.13028,861.97719 338.12252,861.58087 338.12251,861.22591 C 338.12251,860.84314 338.17344,860.48349 338.26359,860.12293 C 338.35329,859.76413 338.36629,859.37867 338.45597,859.01994 C 338.55156,858.63759 338.7492,858.29242 338.93051,857.92979 C 339.11838,857.55404 339.30267,857.28829 339.58461,857.00636 C 339.72331,856.86765 340.16224,856.37137 340.39261,856.31379 C 340.73209,856.22891 341.075,855.93478 341.45711,855.83925 C 341.82139,855.74818 342.19056,855.71361 342.5601,855.62121 C 342.923,855.53049 343.2812,855.48262 343.65026,855.39036 C 343.93394,855.31944 344.45815,855.25247 344.75324,855.32623 C 345.10812,855.41495 345.46763,855.53368 345.81775,855.62121 C 346.22955,855.72416 346.52078,855.97913 346.88226,856.15988 C 346.92,856.17875 346.94877,856.19508 346.98486,856.21118 C 347.94514,856.34563 348.83461,856.57088 349.54994,857.32699 L 349.6782,828.5981 C 349.3919,828.3522 349.05133,828.32612 348.81889,828.71353 C 348.6418,829.00869 348.58894,829.44278 348.42131,829.77804 C 348.30729,830.00607 348.24175,830.46235 348.24175,830.80407 C 348.24175,831.19325 348.25152,831.53578 348.34435,831.90705 C 348.43578,832.27276 348.50974,832.6456 348.60086,833.01004 C 348.64485,833.186 349.16304,833.94843 349.01127,834.1002 C 348.79092,834.32055 348.30388,834.43565 348.01089,834.72864 C 347.74331,834.99622 347.3592,835.14224 347.24137,835.61359 C 347.11292,836.12739 347.43169,836.41271 347.02334,836.34464 C 346.5796,836.27068 346.43531,836.02517 346.11273,835.83162 C 345.91022,835.71012 345.51108,835.1308 345.44581,834.86972 C 345.34349,834.46042 345.19632,834.12941 345.12518,833.70261 C 345.11296,833.62932 345.09892,833.55786 345.0867,833.48458 C 345.00075,832.96883 345.00557,832.45497 344.9328,831.94553 C 344.85696,831.41466 344.71476,830.79104 344.71477,830.25258 C 344.71477,829.87703 344.67629,829.53238 344.67629,829.16242 C 344.67629,828.79388 344.66849,828.43685 344.75324,828.09791 C 344.84418,827.73417 344.87903,827.36389 344.97127,826.99492 C 345.06169,826.63327 345.19269,826.19524 345.42016,825.89194 C 345.66153,825.57012 345.89055,825.35743 346.18969,825.05829 C 346.46255,824.78542 346.72834,824.61261 347.02334,824.39137 C 347.36634,824.13412 347.72206,824.09972 348.08785,823.91683 C 348.42,823.75075 348.81787,823.75062 349.15235,823.58337 C 349.26658,823.52626 349.49373,823.51931 349.70385,823.51924 L 349.70385,823.42946 C 351.34415,823.73408 352.65471,823.73518 353.74385,825.81499 L 353.8208,793.67454 C 353.72175,793.33766 353.56844,793.11437 353.29496,792.84089 C 353.05072,792.59665 352.60081,792.72906 352.3074,792.80241 C 351.97837,792.88467 351.71744,793.3608 351.71743,793.72584 C 351.71743,794.03903 351.73898,794.43586 351.89699,794.75187 C 352.07819,795.11426 352.48158,795.12009 352.85889,794.93143 C 353.06034,794.8307 352.9302,795.59835 352.70499,795.59835 C 352.333,795.59835 351.92809,795.6401 351.602,795.44444 C 351.23054,795.22157 351.13541,795.04014 351.02486,794.59797 C 350.94965,794.29714 350.81776,793.82692 350.87096,793.50781 C 350.93362,793.13182 350.88763,792.75625 351.06334,792.40482 C 351.26453,792.00244 351.62271,791.90957 351.89699,791.6353 C 352.13701,791.39528 352.60917,791.29071 352.9615,791.37879 C 353.13211,791.42145 353.57775,791.53871 353.8208,791.584 L 353.8208,791.50705 L 353.93623,791.60965 C 353.93968,791.60982 353.94597,791.60962 353.94905,791.60965 C 353.97106,791.60988 353.98753,791.60463 353.98753,791.59682 L 353.98753,791.64813 L 354.98791,792.53308 L 355.02639,763.38095 C 354.98413,763.08634 354.94649,762.80485 354.87248,762.50882 C 354.79093,762.18262 354.69283,761.71356 354.46207,761.48279 C 354.24922,761.26994 353.90522,760.75711 353.51299,761.14933 C 353.29829,761.36402 352.92301,761.6992 352.92302,762.05993 C 352.92302,762.28447 353.03015,763.04748 353.37191,763.04749 C 353.89234,763.04749 353.95738,762.17086 354.10296,762.31644 C 354.36907,762.58255 354.37427,763.01395 354.28251,763.38095 C 354.21663,763.64449 354.03694,764.25354 353.73102,764.33003 C 353.46227,764.39722 352.96472,764.74687 352.74347,764.30438 C 352.57494,763.96733 352.24622,763.57231 352.1535,763.20139 C 352.06235,762.83678 351.89698,762.48449 351.89699,762.09841 C 351.89699,761.73184 351.88556,761.34898 351.97394,760.99542 C 352.06743,760.62148 352.09067,760.26179 352.26893,759.90527 C 352.44131,759.56049 352.70815,759.35861 353.07693,759.17422 C 353.41443,759.00546 353.79919,758.96682 354.16708,759.05879 C 354.49124,759.13983 354.84424,759.34657 355.02639,759.40507 C 355.04587,759.41133 355.0753,759.42837 355.09051,759.43073 L 355.09051,759.45638 L 356.20632,760.40546 L 356.06524,728.53434 L 356.00112,728.27783 C 355.92881,728.15468 355.75297,727.91872 355.52658,727.91872 C 355.34717,727.91872 355.11615,727.79688 354.93661,727.84177 C 354.73499,727.89217 354.58117,727.92788 354.44924,728.0598 C 354.30312,728.20593 354.24479,728.34045 354.15426,728.52152 C 354.07988,728.67028 354.11604,728.9073 354.15426,729.06018 C 354.20527,729.26416 354.28949,729.51605 354.42359,729.65015 C 354.54336,729.76993 354.7358,729.81258 354.92378,729.76558 C 355.07457,729.72788 355.21633,729.39331 355.25724,729.29104 C 355.35029,729.05842 354.85763,729.04466 355.00074,729.00888 C 355.17433,728.96548 355.41337,729.05106 355.4881,729.17561 C 355.60799,729.37545 355.60353,729.58761 355.60353,729.81688 C 355.60354,730.01427 355.5505,730.24184 355.42397,730.36837 C 355.25524,730.53711 355.25696,730.63778 355.00074,730.70183 C 354.80498,730.75077 354.65658,730.76596 354.44924,730.76596 C 354.22713,730.76596 354.09398,730.67811 353.91058,730.5864 C 353.70741,730.48482 353.63276,730.16119 353.55147,729.95796 C 353.43527,729.66745 353.31199,729.4704 353.218,729.18844 C 353.20578,729.15179 353.19175,729.12248 353.17953,729.08583 C 353.10295,728.85612 353.1979,728.46814 353.24366,728.23936 C 353.2547,728.18414 353.25709,728.12759 353.26931,728.07263 C 353.27408,728.05113 353.29557,728.03965 353.30778,728.02133 C 353.43318,727.83322 353.44839,727.43231 353.56429,727.2005 C 353.68297,726.96314 353.8494,726.78714 354.02601,726.61053 C 354.17689,726.45966 354.39577,726.38984 354.59032,726.3412 C 354.77739,726.29443 354.94138,726.27707 355.14181,726.27707 C 355.32898,726.27707 355.62286,726.33325 355.77026,726.4438 L 357.29648,727.9572 L 357.51451,724.23783 L 392.65611,724.23783 C 393.26513,724.23783 393.75908,724.73179 393.75909,725.34082 L 393.75909,959.86605 C 393.75909,960.47507 393.26513,960.95621 392.65611,960.95621 L 331.36353,960.95621 L 331.36353,954.95392 L 331.97915,954.95392 L 332.06892,925.82744 C 331.67115,925.71196 331.2162,925.65447 330.97876,925.41703 C 330.25428,924.69255 329.74069,925.12547 329.00365,925.49398 C 328.66702,925.6623 327.93062,926.35762 328.1187,927.10998 C 328.29786,927.82662 328.24745,928.63816 328.41368,929.30313 C 328.56223,929.89732 328.59101,930.99164 328.84975,931.5091 C 329.08264,931.97489 329.3626,932.90674 329.5808,933.34313 C 329.82331,933.82815 330.02584,934.80137 330.5427,935.31824 C 331.25463,936.03017 330.4158,936.37279 329.65775,936.5623 C 328.7302,936.79419 328.10778,937.8724 328.04175,937.80637 C 327.49414,937.25876 327.22082,936.71607 326.72073,936.04929 C 326.29692,935.48421 325.7747,934.57372 325.63057,933.99722 C 325.48115,933.39953 324.90822,932.47557 324.60454,931.86821 C 324.25645,931.17202 324.12504,930.42476 323.93762,929.67506 C 323.77504,929.02472 323.57851,928.14853 323.57851,927.4691 z"
       id="path6037"
       sodipodi:nodetypes="csssscccssssccsssccccccsssssssssssssssssssssssssssssssssssscccsssssssssssssssssssssssccccsssssssssssscccsccccsssssssssssssssscccccssssssssssssssssssssssssscccccccccccsssssssssssssc"
       inkscape:export-filename="/home/fenn/code/skdb/icons/broaching.png"
       inkscape:export-xdpi="90"
       inkscape:export-ydpi="90" />
  </g>
</svg>
